<?xml version="1.0" encoding="utf-8"?>
<!-- Generator: Adobe Illustrator 19.0.0, SVG Export Plug-In . SVG Version: 6.00 Build 0)  -->
<svg version="1.1" id="Capa_1" xmlns="http://www.w3.org/2000/svg" xmlns:xlink="http://www.w3.org/1999/xlink" x="0px" y="0px"
	 viewBox="0 0 480 640" style="enable-background:new 0 0 480 640;" xml:space="preserve">
<style type="text/css">
	.st0{fill:#FFFFFF;}
</style>
<g>
	<g id="XMLID_1_">
		<path id="XMLID_570_" class="st0" d="M17.8,437.2c0-140.1,0-280.1,0-420.2c148.9,0,297.7,0,446.6,0c0,140.1,0,280.1,0,420.2
			c-1.1-0.4-2.2-0.8-2.6-1c-0.5,3-1,5.5-1.4,8c-3.9,0.5-7.9,1-13.1,1.6c-0.8-1.9-1.9-4.8-3.1-7.8c-1.5-0.1-2.9-0.3-4.4-0.4
			c-4.9-2.2-9.5-5.5-15.3-1.3c-1.5,1.1-6.1-0.3-7.8-2c-1.3-1.3-0.3-4.9-0.3-9.7c14.5,10.4,19.7-0.4,26.4-8.6
			c1.1,2.8,1.7,4.5,2.9,7.8c2.5-3.6,4.8-6.3,6.4-9.3c8-15.1-11.3-19.6-12.5-31.4c-0.2-2-4.9-3.5-7.6-5.2c-0.2-0.1-0.6,0.2-1.8,0.5
			c3.4,7,1.3,10.5-6.8,9.3l0.2,0c0.3-0.1,0.7-0.1,1-0.3c0.1-0.1,0.2-0.6,0.1-0.7c-3.8-2.3-7.7-4.7-11.6-7c-0.4,0.6-0.7,1.3-1.1,1.9
			c1.5,2.7,2.9,5.3,4.4,8c-0.9,0.6-1.8,1.2-2.7,1.9c-3.7-4.1-7.4-8.2-11.3-12.6c3.3-1.2,6.6-1.3,7.8-3c5-7.4,9.4-5.2,13.4-0.2
			c5.8-4.2,11.5-8.2,17.8-12.8c-1.6-2.9-3.9-6.8-6.1-10.7c8.2-5.5,10.5-26,6.1-38.6c1.7-3.5,3-7.1,2.4-10.5
			c-1.6-8.7-4-17.2-6.8-28.8c3.8,4.5,6.3,7.4,9,10.6c1.9-14-3.9-21.1-18.7-22.9c6.2,3.8,11.5,7,16.8,10.3c-0.4,0.7-0.8,1.4-1.2,2.1
			c-8.4-2.5-16.7-5-25.1-7.5c-0.2-0.9-0.3-1.7-0.5-2.6c8.7-3.6,17.3-7.1,26-10.7c0.6,1,1.1,1.9,1.7,2.9c2.1-4.9-11.4-22.3,11.6-10.7
			c-4.6-6.5-7.4-10.4-10.2-14.3c0.8,0,1.7,0,2.5,0.1c1.1-5.5,4.9-14,2.8-15.9c-5.6-5.1-4-11.2-5.4-16.6c-1.8-7.1-3.4-15.2-2-22.1
			c1.9-8.7,0.5-14.4-7.1-18.7l0.1,0.2c-6.5-13.2-19.2-17.2-31.8-9.8c-5.3-7.9-11-8.8-19.3-2.9c-5.3,3.8-12.7,4.9-19.4,6
			c-2.3,0.4-5.1-3.2-7.8-4.6c-2.6-1.4-5.3-2.4-8-3.6c17.9-9.2,35.9-18.4,53.8-27.7c-0.3-0.7-0.6-1.3-0.9-2
			c-23.4,10-46.7,20-72.1,30.8c1.9-7,2.9-10.7,4.1-15.3c-3.5-0.7-6.8-1.4-10.1-2c0.2-1.7,0.3-3.4,0.5-5
			c17.6-14.8,35.2-29.5,52.9-44.3c-0.6-0.8-1.3-1.6-1.9-2.3c-25.8,20.2-51.7,40.4-77,60.3c-4.2-2.5-7.9-4.7-11-6.6
			c3.5-8,7.1-16.3,10.7-24.5c1.3-4.3,2.7-8.7,4-13c7.8-9.6,15.6-19.2,23.4-28.8c-1.3-0.9-2.5-1.8-3.8-2.7
			c-6.6,10.5-13.1,21-19.7,31.5c-1.7,1.9-3.4,3.7-5,5.6c-3,3.1-6.3,6-8.9,9.3c-11.2,14.6-22.2,29.3-35,46.3
			c-3-40.2-5.8-77.3-8.6-114.3c-0.6,0-1.2-0.1-1.7-0.1c-5.3,37.1-10.6,74.3-16.3,114.1c-24.8-35.3-48-68.3-71.2-101.3
			c-0.6,0.3-1.1,0.6-1.7,0.9c13.7,26.3,27.5,52.6,40.9,78.3c-5.1,1.1-9.5,2-15.1,3.2c-22.2-17.6-45.5-36.1-68.9-54.7
			c-0.6,0.6-1.1,1.3-1.7,1.9c17.8,16.6,35.6,33.2,54.9,51.2c-7.6-1.9-12.9-3.3-19.1-4.8c0.6,5.2,1,8.3,1.5,12.6
			c-26.8-12.3-52.3-24.1-77.9-35.9c2.3,3.3,5.4,5.2,8.5,7c17.7,9.9,35.5,19.7,53,29.8c1.9,1.1,2.8,4.1,4.1,6.3
			c-0.9,0.5-1.8,1-2.7,1.5c-2.3-1.8-4.5-3.6-7.8-6.3c-4,12.4-10.2,11.4-19.1,5.1c-5.1-3.6-12.3-5-18.7-5.4c-2.9-0.2-6,4.4-9,6.8
			c0,0,0.4-0.4,0.4-0.4c-9.7-5.6-19.3-5.9-27.6,2.2c-6.1,6-17.2,11.5-13.8,20.9c3.9,10.7-1,19.1-1.8,28.4c-0.3,3.1,1.1,8.1-0.3,9.1
			c-11.5,8-5,15.4,0.5,22.5c-3,4.1-5.6,7.8-10.2,14.1c24.3-12.4,7.4,8.2,12.4,10.4c8.6-4.3,13.4,2.7,19.5,5.5l0.3-0.2
			c-15.6-0.7-24.7,9.3-20.9,22.9c2.4-2.7,4.9-5.4,7.4-8.1c-2.5,12.9-10.5,24.3-2.9,39.1c-4.9,10-2.7,30.3,5.1,37.1
			c-2.2,4-4.3,8-5.3,9.9c6.6,5,11.9,9,15.5,11.7c5-0.9,8.8-2.7,11.9-1.8c3.6,1,6.5,4.3,10.3,7.2c-3.3,3.6-7,7.6-10.8,11.6
			c-0.9-0.6-1.8-1.3-2.6-1.9c1.5-2.7,3-5.5,4.5-8.2c-0.5-0.7-1-1.3-1.4-2c-3.7,2.8-7.5,5.7-11.2,8.5c0,0,0.2-0.1,0.2-0.1
			c-9.7,2-6.2-5.2-7.4-10.5c-7.3,7.3-14.5,14.6-19.5,23.2c-2.3,3.9-1,10.4-0.1,15.5c0.5,2.6,3.7,4.7,6,7.6c1.2-3,1.8-4.7,2.9-7.4
			c6.5,7.8,11,18.2,23.1,10.9c0.6-0.3,3.5,1.5,3.5,2.4c0.1,2.1-0.5,6-1.4,6.1c-3.4,0.6-6.9-0.1-10.4-0.1c-2.8,0-5.6,0.2-8.4,0.3
			c0.1,1,0.1,2,0.2,3.1c6.7,1.5,13.4,3,21.6,4.8c-5.3,5-9,8.4-13.9,13c-5.5-8.8-11-17.6-17.4-27.9c-0.5,6.7-1,12.4-1.5,19.1
			C27.6,443.3,22.7,440.3,17.8,437.2z"/>
		<path id="XMLID_202_" d="M57.5,262c-6-2.8-10.9-9.8-19.5-5.5c-5-2.3,11.9-22.9-12.4-10.4c4.5-6.2,7.2-9.9,10.2-14.1
			c-5.4-7.1-12-14.5-0.5-22.5c1.5-1,0.1-6,0.3-9.1c0.8-9.4,5.7-17.7,1.8-28.4c-3.4-9.4,7.7-14.9,13.8-20.9
			c8.2-8.1,17.9-7.8,27.6-2.2c0.9,3.9,1.7,7.7,2.6,11.6c-2.3-0.4-5.4-2.1-6.7-1.1c-10,7.5-9.6,18.4,0.6,26.7
			c5.4-10.8,5.6-10.8,12-2.1c4.2-3.4,6-17.9,2.5-23c4.1-1.2,8-2.4,14.7-4.4c-5.4-3.1-8.4-4.8-11.3-6.5c0.7,1.3,1.5,2.5,2.2,3.8
			c-3.8,2.2-7.6,4.5-11.4,6.7c2.1-4.8,4.2-9.5,6.3-14.3c-0.7-0.6-1.3-1.2-2-1.8c-3.3,1.6-6.6,3.2-9.9,4.8c3-2.4,6.2-7,9-6.8
			c6.4,0.4,13.6,1.8,18.7,5.4c8.9,6.3,15.1,7.3,19.1-5.1c3.3,2.7,5.6,4.5,7.8,6.3c0.9-0.5,1.8-1,2.7-1.5c-1.3-2.1-2.2-5.2-4.1-6.3
			c-17.6-10.1-35.3-19.9-53-29.8c-3.1-1.7-6.2-3.6-8.5-7c25.6,11.8,51.1,23.6,77.9,35.9c-0.5-4.3-0.9-7.4-1.5-12.6
			c6.2,1.6,11.5,2.9,19.1,4.8c-19.3-18-37.1-34.6-54.9-51.2c0.6-0.6,1.1-1.3,1.7-1.9c23.4,18.5,46.8,37.1,68.9,54.7
			c5.6-1.2,10-2.1,15.1-3.2c-13.4-25.6-27.1-52-40.9-78.3c0.6-0.3,1.1-0.6,1.7-0.9c23.2,33,46.4,66.1,71.2,101.3
			c5.7-39.8,11-77,16.3-114.1c0.6,0,1.2,0.1,1.7,0.1c2.8,37.1,5.6,74.2,8.6,114.3c12.8-17,23.8-31.7,35-46.3
			c2.6-3.4,5.9-6.2,8.9-9.3c-14.7,20.5-29.3,40.9-44,61.4c-0.7-0.3-1.4-0.6-2.1-0.8c-2.4-30.1-4.8-60.1-7.2-90.2
			c-0.7,0.1-1.3,0.1-2,0.2c-4.3,29.9-8.7,59.9-13.4,92.5c-17.7-25.2-34.1-48.5-50.4-71.7c-0.5,0.3-0.9,0.6-1.4,0.8
			c12.5,23.9,25,47.9,37.4,71.8c-0.7,0.6-1.4,1.2-2.1,1.8c-14.2-11.1-28.4-22.2-42.7-33.3c-0.5,0.6-1,1.3-1.5,1.9
			c13.3,12.6,26.6,25.1,40,37.7c-0.4,0.6-0.8,1.2-1.2,1.8c-22.4-10.3-44.8-20.6-67.2-30.9c-0.3,0.6-0.6,1.2-0.9,1.8
			c23.2,13.1,46.4,26.2,69.6,39.3c-0.2,1-0.5,1.9-0.7,2.9c-29.9,1.2-59.8,2.3-89.7,3.5c0,0.4,0,0.8,0,1.2
			c32.2,1.6,64.5,3.1,96.7,4.7c1.1-18.8,10.1-29.7,24.4-29.3c5.7,0.1,13.2,2,16.5,5.9c5.5,6.7,8.3,15.6,12.6,24.6
			c33-1.8,68.3-3.7,103.7-5.6c0-0.4,0-0.8,0-1.2c-32.3-1.9-64.6-3.7-96.8-5.6c4.3-4.8,8.7-7.1,13.2-9.4
			c15.1-8.1,30.1-16.2,45.2-24.3c5.4-1.7,10.8-3.4,16.2-5c2.7,1.2,5.4,2.2,8,3.6c2.7,1.5,5.5,5,7.8,4.6c6.7-1.1,14.1-2.3,19.4-6
			c8.3-5.9,14-5,19.3,2.9c12.5-7.4,25.2-3.4,31.7,9.7c-5-2-9.9-3.9-14.4-5.7c-16,8.9-3,13,4.2,17.6c-3.7,1.1-6.2,1.9-8.7,2.7
			c1.8,2.6,3.1,6.5,5.4,7.4c3.3,1.2,7.5,0,11.2-0.2c-1.2-6.2-2.5-12.3-3.8-19c0.8-0.4,3.4-1.6,6-2.8c7.6,4.2,9,9.9,7.1,18.7
			c-1.5,7,0.1,15,2,22.1c1.4,5.4-0.2,11.5,5.4,16.6c2.1,1.9-1.7,10.4-2.8,15.9c-0.8,0-1.7,0-2.5-0.1c2.8,3.9,5.6,7.8,10.2,14.3
			c-23-11.6-9.5,5.8-11.6,10.7c-0.6-1-1.1-1.9-1.7-2.9c-8.7,3.6-17.3,7.1-26,10.7c0.2,0.9,0.3,1.7,0.5,2.6c8.4,2.5,16.7,5,25.1,7.5
			c0.4-0.7,0.8-1.4,1.2-2.1c-5.3-3.3-10.6-6.5-16.8-10.3c14.8,1.8,20.6,8.9,18.7,22.9c-2.7-3.2-5.1-6.1-9-10.6
			c2.8,11.6,5.2,20.1,6.8,28.8c0.6,3.3-0.6,7-2.4,10.5c4.4,12.5,2.1,33-6.1,38.6c2.2,3.9,4.5,7.8,6.1,10.7
			c-6.3,4.5-11.9,8.6-17.8,12.8c-4-5-8.4-7.2-13.4,0.2c-1.1,1.7-4.5,1.8-7.8,3c4,4.4,7.7,8.5,11.3,12.6c0.9-0.6,1.8-1.2,2.7-1.9
			c-1.5-2.7-2.9-5.3-4.4-8c0.4-0.6,0.7-1.3,1.1-1.9c3.9,2.3,7.7,4.6,11.6,7c0.1,0,0,0.6-0.1,0.7c-0.3,0.2-0.6,0.2-0.9,0.3
			c0.8,2.2,1.3,4.5,2.2,6.6c4.9,12.4,2.2,18.4-10.3,23.5c4.5,2.6,9.7,5.7,14.1,4.9c10.9-2.1,7.6-11.6,9-20c3.2,3.5,6.3,7,9.5,10.5
			c1.2-4.7,1.4-10.3-1.3-13.1c-3-3.1-8.6-3.7-13.1-5.4c-0.1,0.5-0.3,0.9-0.4,1.4c-3.3-2.8-6.5-5.6-9.8-8.4c8.1,1.2,10.2-2.2,6.8-9.3
			c1.2-0.3,1.6-0.6,1.8-0.5c2.7,1.7,7.4,3.2,7.6,5.2c1.2,11.8,20.5,16.3,12.5,31.4c-1.6,3.1-3.9,5.8-6.4,9.3c-1.2-3.2-1.9-5-2.9-7.8
			c-6.7,8.2-11.9,19-26.4,8.6c0,4.7-1,8.4,0.3,9.7c1.7,1.7,6.3,3.1,7.8,2c5.9-4.2,10.4-0.9,15.3,1.3c-7,1.9-14,3.9-22.2,6.1
			c5.2,4.4,9,7.6,12.8,10.9c2-1.3,4.9-3.3,7.9-5.3c2.8,2,5.4,4.4,8.5,6c7.9,4,12.3,19.2,5.6,24.2c-9,6.5-5,13.5-3.7,21.6
			c-3.2-0.9-6.1-1.6-9.4-2.5c0,4.1,0,7.3,0,9.2c-5.1,0.4-9.3,0.7-14.2,1.1c7,14.7,6.9,20.6-0.4,30.6c-3.9-5-7.6-9.8-11.9-15.2
			c-3.4,3.1-6.4,5.9-10.4,9.6c-11.2-15.5,3-29.1,2-43.9c-3.6,1.9-6.6,3.4-10.2,5.2c1.5,2.6,2.8,4.7,4.3,7.2
			c-6.8,5-10.9,10.9-4.8,21.2c-8.8-7-11.6,0.1-16,5c-1.3-4-2.3-6.9-3.3-9.9c-0.8,0-1.6,0-2.4-0.1c0,6.8,0,13.7,0,22
			c-10.2-4.8-8.8,1.5-7.7,8.7c-4.1-4.4-6.5-6.9-10.4-11.2c-2.7,6-4.7,10.6-6.1,13.6c23.2-2.5,45.1-5.8,67.2-6.5
			c6.6-0.2,15.3,5.6,19.5,11.3c2.3,3.1-1.5,12.8-5.2,17.6c-8.4,11.2-18.3,21.4-27.8,31.8c-1.5,1.7-3.7,3-5.8,3.9
			c-10.3,4.3-20.7,8.3-31.2,12.5c0-3.2,0-6.7,0-10.1c-4.6,0.4-8.5,0.8-12.8,1.2c5.6-15.6,21.7-16.1,32.5-24
			c-21.5,2.6-40.3,11.4-58.6,21.2c-20.1,10.7-28.4,8-37.2-13c-30,0-60-0.2-90,0.3c-2.7,0-5.2,4.4-7.9,6.7c-4.3,3.8-8.1,9.8-13,10.8
			c-5.6,1.2-12.5-1.2-18.2-3.5c-18.8-7.4-37.4-15.4-56.1-23.1c-5-2.1-8.7-1.6-8.4,6.1c12.5,3.5,27.3,3.1,36.3,16.8
			c-5.1,0.7-9.3,1.4-13.1,1.9c0.5,3.6,1,6.6,1.5,10.4c-5.8-2.3-10-4.4-14.5-5.7c-4.5-1.3-9.9-0.7-13.8-2.8
			c-6.2-3.3-14.2-7.2-16.4-12.8c-3-7.7-7.4-13.1-13.2-18.3c-3.8-3.4-7-7.3-10.1-11.3c-10.1-13-6.4-23.7,9.5-28
			c3.2-0.9,6.8-1.2,10-0.8c20.9,2.4,41.9,5.1,64.2,7.8c-2.1-3.9-4.4-8.5-7.3-13.9c-3.8,4.2-6,6.7-8.3,9.1c0-6.4,0.3-11.4-8.2-7.8
			c-0.4-7.7-0.8-14.5-1.1-21.4c-0.9,0.1-1.8,0.1-2.6,0.2c-1,3-2,6-2.6,7.7c-5.3-2.2-10.1-4.3-12.5-5.3c-2.4-6-4.6-11.3-6.7-16.6
			c-0.5-1.4-1.6-3.2-1.2-4.2c3.8-7.8-3-5.2-6.5-7.6c-0.5,14.2,12.3,26.9,1.4,41.1c-3.9-3.6-6.9-6.4-10.3-9.5
			c-4.3,5.4-8,10.2-12.3,15.6c-7.9-10.7-5.7-20,0.6-31.1c-5.6-0.4-9.8-0.7-14.9-1.1c0-2.3,0-5.7,0-10.3c-2.5,1.3-3.9,2.3-5.4,2.7
			c-1.4,0.4-3,0.1-2,0.1c-0.8-7,0.6-14.8-2.6-19.1c-8.4-11.2-7.2-21.4,5.4-27c2-0.9,3.7-2.2,5.6-3.3c-0.3-0.7-0.6-1.4-0.9-2.1
			c-5.9,2.1-11.7,4.3-18.3,6.6c-2.1-3.1-4.5-6.6-6.9-10.1c0-2.7,0-5.4,0-8.1c4.9,3,9.9,6.1,17.1,10.5c0.5-6.7,1-12.5,1.5-19.1
			c6.4,10.3,11.9,19.1,17.4,27.9c5-4.6,8.6-8,13.9-13c-8.2-1.8-14.9-3.3-21.6-4.8c-0.1-1-0.1-2-0.2-3.1c2.8-0.1,5.6-0.4,8.4-0.3
			c3.5,0,7.1,0.7,10.4,0.1c0.9-0.2,1.5-4,1.4-6.1c-0.1-0.9-3-2.7-3.5-2.4c-12.1,7.3-16.5-3.1-23.1-10.9c-1.1,2.7-1.7,4.4-2.9,7.4
			c-2.4-2.9-5.6-5-6-7.6c-0.9-5.1-2.2-11.6,0.1-15.5c5.1-8.6,12.2-15.9,19.5-23.2c1.2,5.3-2.3,12.5,7.4,10.5
			c-2.6,3.1-5.2,6.1-7.8,9.2c-5.1-0.6-10.7-0.3-13.2,2.6c-2.8,3.3-2.9,8.9-4.3,13.9c4.8-4.3,8.5-7.6,12.1-10.8
			c0.8,0.5,1.6,1.1,2.4,1.6c-1.7,7.6-3.7,15.5,6,18.6c6.6,2.2,11.9,0.2,14.6-6.9c-12.1-2.5-14.9-7.9-10.9-20.1c0.8-2.5,0.7-5.3,1-8
			c3.7-2.8,7.5-5.7,11.2-8.5c0.5,0.7,1,1.3,1.4,2c-1.5,2.7-3,5.5-4.5,8.2c0.9,0.6,1.8,1.3,2.6,1.9c3.7-4,7.5-8.1,10.8-11.6
			c-3.9-2.8-6.8-6.2-10.3-7.2c-3.1-0.9-7,0.9-11.9,1.8c-3.6-2.7-8.9-6.7-15.5-11.7c1-1.9,3.1-5.8,5.3-9.9c-7.7-6.8-10-27.1-5.1-37.1
			c-7.6-14.8,0.4-26.2,2.9-39.1c-2.5,2.7-5,5.4-7.4,8.1c-3.8-13.6,5.3-23.6,20.9-22.8c-6.1,3.5-12.2,6.9-18.3,10.3
			c0.5,0.7,0.9,1.5,1.4,2.2c8-2.5,16.1-4.9,24.1-7.4c0.1-0.8,0.2-1.7,0.3-2.5C62.7,263.7,60.1,262.9,57.5,262z M62,281.4
			c0.9-3,1.7-6.1,2.6-9.1c-0.9-0.5-1.8-1-2.6-1.4c-4.1,5.7-8.2,11.3-12.5,17.3c0.1,0-1.5-0.7-3.2-1.4c-1.8,7-3.4,13.4-5.2,20.5
			c1.7,1.2,4,2.9,4.2,3c5.9-10,11.5-19.6,17.1-29.2c-2,8.7-4.1,17.3-6.1,25.8c-0.4-0.4-1.9-1.8-2.8-2.7c-3.7,7.6-7,14.5-10.4,21.6
			c3.8,1.3,6.4,2.3,9.5,3.4c0.8-6.1,1.6-11.6,2.3-17.1c1,0.1,2,0.2,3,0.3c-0.9,6-3.7,12.4-2.3,17.8c1.5,5.6,6.9,10.2,10.6,15.3
			c0.7-0.5,1.4-1,2-1.5c-10.2-12.3-8.6-32.9,3.5-43.6c-1.8-2.8-3.7-5.6-5.4-8.1c4.1-0.2,9.6,0.5,10.1-0.7c1.5-3.8,1.1-8.4,1.7-15.5
			c-5.3,5-8.1,7.6-10.2,9.7C65.8,284,63.9,282.7,62,281.4z M432.8,305.2c-2.5,0.4-5.1,0.8-6.3,0.9c-2.1-7.8-4.4-16.3-7.2-26.6
			c-1.9,3.8-2.7,5.3-3.6,6.9c-1-0.2-2-0.5-3-0.7c0.5-2.8,1.4-5.6,1.3-8.4c0-1.4-1.7-2.8-2.6-4.1c1.6-4.7,3.7-9.3,4.7-14.2
			c0.3-1.4-2.6-3.5-4-5.3c-5.8,5.9-11.7,11.8-17.4,17.9c-0.2,0.3,1.1,2,2.3,4c2.8-3.3,5-6,6.1-7.3c3.4,1.8,6,3.2,8.6,4.5
			c-1,1.3-2.5,2.5-2.9,3.9c-1.3,4.8-2.1,9.6-3.1,14.5c3.5,0.4,6.9,0.8,10.7,1.3c-1.5,2.3-3.5,5.1-5.4,7.9c11,9.1,11,9.1,8,25.7
			c-0.4,2,3.8,12.6,5.1,13c-0.9,3.4-1.8,6.8-2.7,10.2c0.9-0.2,1.8-0.3,2.7-0.5c0.6,5,1.3,10.1,2.2,17.2c-6.1-6.9-10.5-12-14.7-16.8
			c-3.2,6-5.7,10.8-8.3,15.7c0.7,0.8,1.3,1.5,2,2.3c3.4-2.5,6.7-5.1,10.4-7.9c-0.6,2.4-1.1,5-2.2,9.7c7.2-1.2,12.9-2.2,18.9-3.2
			c-1.8-5.3-2.6-7.9-3.5-10.6c-1.7-5.3-3.4-10.6-5.1-15.9c1.3-5.8,2.7-11.6,4.5-19.8c1.1,4.7,1.6,7,2.1,9.4
			c3.5-1.3,6.2-2.2,10.1-3.7c-3-4.8-5.7-9-8.3-13.1c3.4-1.6,6.8-3.2,9.6-4.5c-2-7.7-3.6-14-5.3-20.8c-2,0.7-3.9,1.3-3.3,1.1
			c-4.6-6.4-8.4-11.6-12.2-16.9c-1,0.7-2.1,1.3-3.1,2c1.5,2.6,3.4,5,4.4,7.8C425.5,289.2,433.5,295.4,432.8,305.2z M423.9,218.2
			c-0.3-1.6-0.1-4.1-1.1-4.7c-12.6-7.4-6.7-14.2,0.5-21c0.2-0.1-0.5-1.1-1.8-4.2c-7.8,6.9-14.9,13.2-22.1,19.5
			c0.5,0.8,1,1.7,1.5,2.5c3.4,0,6.9,0,11.1,0c-0.6,10.2,6.6,7.7,12.3,7.6c3.9,11.1,2.3,15.6-3.9,14.7c0.4-3.5,2.2-9.4,1.1-10
			c-5.4-2.8-11.6-4.2-18.7-6.5c3.4,6.9,6,12.3,8.7,17.7c-1.3,0.5-3,1.1-4.5,1.6c1.7,4.4,3.3,8.4,5.2,13.2c1.3-0.6,4.1-1.9,6.6-3.1
			c-1.2-2.9-2-4.9-2.8-6.9c3.7,1.6,5.9,4.2,7.9,6.8c0.1,0.2-0.1,0.6-0.2,1c-1.9,1.5-3.8,2.9-5.9,4.5c7.6,6,14.6,5.9,17.1-0.3
			c3.9-9.5,4.5-20.5,13.1-27.9c0.5-0.4-0.1-2.3-0.2-3.6c-2.6,2.1-4.8,3.8-7,5.4c-0.7-0.3-1.5-0.7-2.2-1c1.1-6.5,2.2-12.9,3.3-19.4
			c-0.7-0.5-1.5-1-2.2-1.4C434.4,207.8,429.1,213,423.9,218.2z M104.6,267.2c5-4.4,9.7-10.7,5.9-16.2c-4.1-5.9-4.3-17.7-16.2-15
			c1-3.2,1.9-6,2.7-8.8c-6.6,3.6-11.5,7.9-15.1,13.2c-1.3,1.9,0.4,5.9,0.7,9c2.8-0.8,5.7-1.3,8.3-2.6c2.8-1.4,5.3-3.5,7.9-5.3
			c0.2,0.4,0.5,0.8,0.7,1.3c-3.6,4.3-7.2,8.7-11.4,13.7c-2.2-1-5.6-2.5-11.4-5.1c8.1,11.6,15.6,18.4,28.1,15.6
			c-7.5,6.4-21.8,7.5-18,22.8c0.1,0.2-0.3,0.5-0.6,0.8c-4.4,5.2-4.3,5.9-1.1,8.4c-2.2,3.4-4.1,6.4-6.5,10c-1.2-2-2.3-3.9-3.4-5.8
			c-2.3,2.9-3.3,6.1-2.1,7.6c3.4,4.4,7.7,8.1,9.6,10c9.1,6.2,16.1,11,23.2,15.7c-0.5,0.7-1,1.4-1.5,2.1c-2.8-0.2-5.6-0.5-8.5-0.7
			c1.1,2.5,2.2,5,3.2,7.5c0.8,2,1.6,4,3.1,7.7c2.3-4.1,3.7-6.8,5-9.1c3.1,0.6,6.2,1.2,9.2,1.9c0.3-0.8,0.6-1.6,0.8-2.4
			c-1.9-1.6-3.8-3.1-5.4-4.5c12.5-7.2-0.5-9.5-2.6-13.9c2.2-1.2,4.2-2.3,5.2-2.9c-3.8-4.8-9.9-8.8-10.2-13.2
			c-0.8-11,0.8-22.2,2-33.3C106.9,272.3,110.8,268.8,104.6,267.2z M237.1,365.3c-38.8,0-76.5,0-114.6,0
			c-0.1,28.4,2.3,55.5,12.2,81.5c13.2,34.8,38.1,55.9,74.6,63.1c9,1.8,18.3,2.1,27.9,3.1C237.1,462.6,237.1,414.3,237.1,365.3z
			 M358.8,359.3c0-48,0-95.4,0-143.2c-38.9,0-77.2,0-115.5,0c0,48.1,0,95.5,0,143.2C282.1,359.3,320.2,359.3,358.8,359.3z
			 M243.4,365.1c0,49.4,0,98.2,0,147.5c33.9-0.9,64.2-8.7,86-35.4c26.7-32.6,29.6-71.8,29.9-112.1
			C319.7,365.1,281.7,365.1,243.4,365.1z M122.6,359.2c38.6,0,76.3,0,114.1,0c0-48.1,0-95.6,0-143.1c-38.3,0-76,0-114.1,0
			C122.6,263.9,122.6,311.1,122.6,359.2z M118.1,522.3c78.1,53.1,172.9,51.2,241-1.5c-7.2-6.7-14.4-13.3-21.8-20.2
			c-65.1,46.2-130.8,35.5-196.5,0C133.4,507.7,126.1,514.6,118.1,522.3z M164,584.7c-1.3,4.9-2.7,9.8-4,14.7
			c-2.6-1.7-5.2-3.4-7.8-5.1c0.6-0.8,1.3-1.7,1.9-2.5c1.8,1.4,3.5,2.8,5.3,4.2c-2-7.5-3.9-14,6.6-18.2c-4.3-3.8-7.1-7.3-10.6-9.3
			c-26.2-14.6-54.6-21.4-84.5-21.1c-5.2,0.1-10.8,1.5-15.5,3.8c-7.3,3.5-9.5,9.8-4.3,16.7c5.2,6.9,11.3,13.2,14.8,17.4
			c9.3-1,16.3-3.6,22-2c20,5.7,39.7,12.6,59.3,19.6c6.6,2.4,12.5,6.8,19,9.5c11.6,4.6,20.3-0.7,21.2-13.5
			C171.4,606.7,171.9,587.9,164,584.7z M294.1,598.4c-0.8,9.6,3.7,14.5,11.2,15c5.3,0.3,11.1-1.9,16.3-3.9
			c21.4-8.2,42.3-17.6,64.1-24.7c8.4-2.7,18.5-0.4,27.8-0.4c5.3-2.3,10.4-7.4,14.7-12.9c8.4-10.7,5.8-18.6-7.3-22.5
			c-3.5-1-7.3-1.4-11-1.4c-25.7,0-50.2,5.5-73.8,15.9c-7.7,3.4-12.7,8.2-13.4,16.7c2.7,0.4,5.3,0.7,7.8,1c0,0.7,0,1.4,0,2.1
			c-2.1,0.4-4.1,0.7-7,1.3c2.5,4.4,4.5,7.8,6.6,11.6c2.1-2.2,3.5-3.7,4.9-5.2c0.7,0.6,1.3,1.2,2,1.9c-1.7,1.9-4.6,5.6-4.9,5.4
			c-4.6-3-8.8-6.5-13.6-10.4C317.7,604.6,305.5,599.9,294.1,598.4z M163.6,569.5c3.4,7.4,6.9,14,9.5,20.9c2.2,5.6,5.1,6.6,11.3,6.3
			c32.7-1.4,65.4-2.2,98.1-2.5c9.6-0.1,19.3,1.9,29.1,3c3.7-9.2,7.1-17.7,10.8-26.9C268.7,562.2,216.7,561.4,163.6,569.5z
			 M354.1,513.2c19.8-10.4,37.6-19.9,55.6-29c13.2-6.7,16.3-20.1,5.9-30.9c-2.6-2.7-9.1-4.7-12.2-3.3c-28.4,12-54.9,27.2-78.7,47.3
			c5.5,10.2,9.3-1.4,16.6,0.1C344.7,501.7,349.8,507.9,354.1,513.2z M152.6,500.8c0.3-1.3,0.5-2.6,0.8-3.9
			c-23-19.1-48.6-33.8-75.6-46.2c-9-4.1-14.1-0.7-17.9,7c-5.3,10.7-4,19.9,3.7,24c19.7,10.3,39.4,20.3,60,30.9
			c5.2-4.8,11-10.2,16.2-14.9C144.7,498.8,148.6,499.8,152.6,500.8z M263.3,189.3c0-12.1-9.6-21.8-21.6-22
			c-12.3-0.2-22.7,10.2-22.5,22.3c0.2,11.7,10.6,21.8,22.3,21.7C253.5,211.3,263.3,201.3,263.3,189.3z M397.4,299.1
			c0.9-1.6,2.4-4.3,3.9-7.1c-7.2-2.3-4.9-9.2-6.5-14.1c-0.7-2.2-1.2-4.4-1.8-6.7c-1.2,1.1-2.3,2.2-3.5,3.3
			c1.3,14.5,2.5,29.1,3.8,43.6c-1.3,0.1-2.5,0.1-3.8,0.2c-1.1-15.5-2.1-31-3.2-46.9c-3.2-1-6.9-2.2-11.6-3.8
			c0.5,2.9,0.9,4.7,1.2,6.6c1.5,10.6,4.6,21.4,4,31.8c-0.4,5.7-7.2,10.9-11.4,16.7c1,0.4,3.1,1.4,5.6,2.4c-11.6,8.6-11.7,9-2.9,14.1
			c-2.4,1.2-4.7,2.3-6.9,3.5c0.7,1.1,1.5,2.1,2.2,3.2c3.2-0.6,6.5-1.2,9.2-1.7c1.7,2.7,3.3,5.2,5,7.9c2.8-4.9,4.8-8.4,6.9-11.9
			c-3.1-0.9-6.1-1.9-9.9-3.1c8.8-3.1,2.2-6.6,0.6-11.3c2.5,1.5,5.1,3,6,3.6c6.3-2.4,11.5-4.4,16.6-6.4c1.7-5,5.6-8.1,8.5-12
			c1.3-1.7,0.6-4.9,0.8-7.4c-1,0-1.9,0-2.9,0c-0.9,1.7-1.9,3.4-2.8,5C401.6,305,399.5,301.9,397.4,299.1z M33.1,217.3
			c6.2,12.1,11.2,21.3,15.7,30.7c4.8,9.9,9.3,10.5,15.7,1.6c-2.1-1.2-4.2-2.4-6.4-3.7c2.6-3.2,4.8-5.7,7.4-8.8
			c5.1,9.1,8,4.8,11.1-1.7c-2.1-0.7-3.9-1.3-4.9-1.7c2.6-5.8,5.1-11.4,8.2-18.4c-8.5,3.4-14.9,6-22,8.8c2.8,3.6,4.6,5.9,6.4,8.3
			c-1.1,0.7-2.2,1.4-3.3,2.1c-1.6-3.3-4.5-6.7-4.5-10c0-10.4-4.6-17.5-15.3-20.5c1,6.7,1.9,13.2,2.9,19.6c-0.8,0.2-1.6,0.4-2.4,0.7
			C39.6,222.6,37.5,220.9,33.1,217.3z M370.9,431c-0.4-7.9-1.7-15.7-1.1-23.3c0.5-6.4,2.8-12.9,5.2-19c2-5-0.8-10.7-6.9-12.9
			c-2.6,19.2-1.1,39.3-9.5,59.5c1,1.7,2.9,5.2,6.2,10.9c1.6-5.5,2.4-8,2.5-8.4c5.9,2.9,10.9,6.5,16.4,7.6c2.1,0.4,8-5.7,7.5-7.3
			c-1.8-5.8-5.7-10.9-9.2-17.2C376.9,425.6,373.4,428.8,370.9,431z M114.4,375.7c-8.7,5.5-9.5,8.2-4.1,15.3c0.8,1,2.3,2.1,2.3,3.1
			c0.2,12.5,0.1,25,0.1,37.7c-3.4-3.1-7-6.4-10.4-9.5c-14.6,12.7-14.9,18.2-1.3,23.3c-3.3-6.5-3.2-12,2.4-17.1c0,6,0,10.8,0,15.6
			c1,0.3,1.9,0.6,2.9,0.9c2.7-3,5.5-6,8.2-9c1.3,2.7,2.5,5.4,5.1,10.9c2.3-6.7,5.4-13.3,4.6-13.8c-7.5-4.6-4.4-12.2-5.8-18.3
			c-0.8-3.6-0.4-7.4-0.8-11C116.6,394.6,115.5,385.3,114.4,375.7z M388.4,235.8c-8.3,1.1-15.7,9.8-16.5,18.1
			c-0.7,7,2.5,10.8,8.8,12.5c9.5,2.6,17.3-2.1,24.5-15.7c-6,3.9-10,7.6-14.7,9c-3.6,1-8.5-0.3-11.9-2.1c-1.3-0.7-0.2-5.9-0.2-8.6
			c2.8,3.6,5,7.9,6.5,7.7c3-0.4,5.7-3.3,8.5-5.2c1.9-1.6,6.2-1.3,7.4-3.1c1.4-2.2,1.2-6.9-0.3-9.1c-3.5-4.9-8.2-8.8-12.5-13.1
			c-0.6,0.4-1.3,0.8-1.9,1.2C386.8,229.9,387.5,232.5,388.4,235.8z M75.2,597.7c6.3,20.9,25.8,13.9,38.2,20.5c0.3,0.2,1-0.5,1.5-0.7
			c-0.8-2.4-1.7-4.7-2.6-7.4c4.3-0.3,7.8-0.5,11.3-0.7C108.9,600.8,93.8,594.9,75.2,597.7z M111.3,349c-1.1,0.3-2.2,0.7-3.3,1
			c3.3,13.2-4.5,12.4-12.9,10.8c0.9,3.2,1.6,5.4,2,7.1c-3.2-0.3-5.9-1.2-8.3-0.7c-2.8,0.6-5.3,2.4-8.3,3.8c2.7,9.5,2.1,20,6.9,29.2
			c7.5-10.8,4.8-26.1,19.4-30.1c2.9-0.7,5.9-1.4,10.9-2.5c-4.1-2.4-5.6-3.3-6.4-3.8c2.1-2.8,5.4-5.2,5.3-7.6
			C116.5,353.7,113.2,351.4,111.3,349z M412.2,439.4c1-0.7,1.9-1.4,2.9-2.1c-4.9-7.4-9.9-14.8-16-24.1c-0.4,4.4-0.6,6.7-1,10.3
			c-5-14.7-9.5-28-14.9-43.7c-0.8,6.9-1.5,12.2-2.1,17.1c-1.4-0.6-4.1-1.9-9.2-4.2c7.4,7.5,12.8,13,18.2,18.4
			c-0.9,0.9-1.8,1.7-2.7,2.6c-1-2-2.1-4-3.4-6.5c-3.9,3.7-6.7,6.3-9.5,8.9c0.6,0.6,1.1,1.3,1.7,1.9c2.1-1.4,4.2-2.9,5.3-3.6
			c8.8,9.7,16.9,18.5,24.9,27.4c0.6-0.4,1.1-0.7,1.7-1.1c-2-4.8-4.1-9.5-6.1-14.3c0.5-0.2,1.1-0.5,1.6-0.7
			C406.5,430.3,409.4,434.8,412.2,439.4z M374.3,239c-9.2-0.9-9.2,5.8-9.3,10.9c-0.5,18.8-0.4,37.7-0.4,56.6c0,2.9,0.4,5.7,0.7,8.6
			c1.1,0.5,2.3,1,3.4,1.5c2.3-3.6,5.6-6.9,6.5-10.8c1.1-4.8-0.1-10,0-15.1C375.2,273.7,360.9,257,374.3,239z M75.8,438
			c0.8,0.6,1.7,1.2,2.5,1.8c7.7-8.5,15.4-17,23.1-25.5c1.5,0.8,3.5,1.9,5.4,3c0.4-1.2,0.9-2.3,1.3-3.5c-4.5-1.4-8.9-2.8-18.5-5.8
			c6.5-4.7,12.6-9.1,18.7-13.6c-0.1-0.2-0.1-0.4-0.2-0.5c-2.7,1.3-5.4,2.6-6.6,3.2c-0.6-4.9-1.2-10.2-1.9-16.6
			c-5.2,14.9-9.7,27.9-14.5,41.4c-0.5-2.6-1-4.7-1.8-8.6c-5.9,9.3-10.8,16.9-15.7,24.4c0.9,0.6,1.8,1.2,2.7,1.7
			c2.9-4.5,5.8-9,8.8-13.5c0.6,0.3,1.2,0.7,1.7,1C79.3,430.6,77.6,434.3,75.8,438z M396.4,168.5c3.4-0.5,5.7-0.9,9.1-1.4
			c0,7,0,13.3,0,19.5c3.9,0,7.4,0,10.9,0c0.1-0.6,0.2-1.1,0.3-1.7c-1.5-0.5-3-1-4.4-1.5c5.6-8.9,4.8-12.7-5.6-25.8
			c-2.3,1.6-4.6,3.2-7.2,5c-3.5-4.4-6.6-8.2-10.2-12.7c-3,1.9-5.8,3.7-10,6.3c6.7,2.7,11.4,4.5,16.2,6.4c-0.2,0.6-0.5,1.2-0.7,1.8
			c-1.5-0.4-2.9-0.7-7.1-1.8c9.2,6.3-3.1,17.2,8.3,21.4c2.8-3.4,5.3-6.4,8.1-9.7C401.5,172.4,399.5,170.9,396.4,168.5z M113.3,316.4
			c1.3-0.6,2.6-1.1,3.9-1.7c0-22.9,0-45.7-0.1-68.6c0-1.9-0.5-4.2-1.7-5.7c-0.9-1.2-3.1-1.5-4.8-2.2c-0.4,1.7-1.8,4.1-1.1,5.1
			c8,11.7,2.6,22.9,0.1,34.6c-2,9.3-2.2,19.2-2,28.8C107.7,310,111.3,313.2,113.3,316.4z M402.6,370c-6.4-1.1-11.5-2-16.9-3
			c0.3-1,1-3.3,1.8-5.8c-7.7,0.6-15.5-2.7-20.7,6.9c2.9,0.7,6,0.7,8,2.2c5,3.6,10.9,7,13.9,12c3.1,5.2,3.2,12.2,4.6,18.4
			c1.2,0,2.5,0,3.7-0.1C398.8,390.6,400.6,380.7,402.6,370z M141.1,471.3c-5.3-9.7-10-18.2-14.7-26.8c-0.9,0.1-1.8,0.3-2.7,0.4
			c-1.2,5-2.4,9.9-3.7,14.9c-1.1-0.3-2.3-0.7-3.4-1c0.4-3.7,0.7-7.5,1.1-11.2c-9.2-0.3-9.4,0-9.9,11.8c-2.2-3.1-3.9-5.4-5.6-7.8
			c-0.8,0.3-1.6,0.7-2.4,1c0.6,2.1,0.6,5.4,2,6.3c9.6,5.6,19.5,10.7,30.2,16.4c-2.3-5.3-4.3-10.2-6.7-15.7
			C132.3,461.9,129.6,473.5,141.1,471.3z M403,602.8c-0.4-1.5-0.8-2.9-1.1-4.4c-7.7-0.4-15.7-2.2-23.1-0.8c-7.3,1.4-14,6.1-21,9.3
			c0.4,1,0.8,2,1.2,3c3.6-0.5,7.1-1,11.1-1.5c-0.6,3.1-1,5.7-1.7,9C380.8,612.2,391.9,607.5,403,602.8z M420.8,484.5
			c-5.2,1.4-12.4,3.5-13.6,12.9c-0.7,5.4-1.1,10.8-1.8,16.2c-0.5,3.8-1.2,7.5-1.8,11.2c1,0.3,1.9,0.6,2.9,1c2.3-4.5,4.6-8.9,7-13.6
			c3.2,3.6,6.2,7,9.8,11C422.4,509.6,421.6,497.5,420.8,484.5z M340.8,470.6c15.1,4.5,22.8-5.4,31.9-10.6c1.8-1,1.5-7.2,0.5-10.6
			c-0.4-1.5-4.9-1.8-8.1-2.9c0.5,5.6,0.8,9.2,1.1,12.8c-1.2,0.2-2.3,0.4-3.5,0.7c-1.3-5-2.6-10-4.7-17.8
			C351.4,453.1,346.5,461.2,340.8,470.6z M69.4,512.2c2.4,4.3,4.7,8.7,7.1,13.1c0.9-0.4,1.9-0.8,2.8-1.3c-1.6-7.4-4.4-14.8-4.6-22.2
			c-0.3-11.8-3.7-16.2-15.6-16.4c6.9,12,0.7,24.1-0.7,39C63.2,519.2,66.3,515.7,69.4,512.2z M372.9,173.1c0.5,0.3,1.1,0.6,1.6,0.9
			c-1.2,3.3-2.3,6.6-3.8,10.8c4.6,0.3,8.1,0.5,12.9,0.7c-1.9-2.8-3.1-4.5-4.9-7.1c8.8-0.9,10.9-6.5,7.4-12.5
			c-3.5-6.1-9.3-5-14.4-0.5c-1.5,1.3-3.6,1.8-5.2,2.9c-2.2,1.5-4.3,3.3-6.4,5c2.2,2.4,4.4,4.8,6.7,7.5
			C369.6,177.4,371.2,175.3,372.9,173.1z M44.9,494.5c1.5-6.2,2.8-11.3,4-16c1.8,1.2,3.1,2,5.9,3.9c-1.7-7.7-2.9-13.7-4.7-21.9
			c-2.3,6.5-3.8,10.9-5.3,15.2c-0.9-0.2-1.7-0.4-2.6-0.7c1.3-6.2,2.5-12.4,3.8-18.6c-7.7,2-6.5,2.2-8.8,14.1
			C35.2,480.5,40.5,486.3,44.9,494.5z M52,161.8c-1.7,5.8-3.6,11.5-4.6,17.2c-0.1,0.5,6.1,3.5,8.3,2.7c3.8-1.4,6.8-5,10.1-7.7
			c-0.6-0.8-1.3-1.5-1.9-2.3c-2.4-0.3-4.9-0.6-8.8-1.1c15.6-8.7,15.6-8.7,5-18.2c-2,1.3-3.7,2.7-5.7,3.5c-1.8,0.7-3.9,0.6-5.8,0.9
			C49.9,159,51.4,161,52,161.8z M126.1,173.7c-8.4-4.9-13.9-9-20-11.2c-2.5-0.9-8.2,1.2-9.2,3.5c-1.3,2.9,0.3,7.3,1.4,10.8
			c0.7,2.2,2.7,4.1,4.1,6.1c-0.7,0.9-1.5,1.7-2.2,2.6c3.8-0.2,7.6-0.5,12.2-0.8c-1.8-4.5-3-7.6-4.3-10.6c0.6-0.3,1.1-0.6,1.7-0.9
			c1.9,2.3,3.7,4.6,6.8,8.3C119.8,178.9,122.4,176.8,126.1,173.7z M437.1,493.3c0.9,0.2,1.8,0.4,2.7,0.6c3.2-9.1,6.3-18.2,10.2-29.4
			c-3.4-2.6-7.8-6.1-14.1-11.1c2.1,9.4,3.5,15.4,4.9,21.5c-1,0.2-2.1,0.4-3.1,0.6c-1.4-4.2-2.8-8.5-4.5-13.9
			c-1.7,5.9-3.3,9.9-4,14.1c-0.3,1.7,0.7,5.1,1.7,5.3c5.5,1.2,5.8,1.5,5.5,7C436.2,489.7,436.8,491.5,437.1,493.3z M76.7,367.2
			c0.8-0.7,1.6-1.5,2.4-2.2c-2.4-5.1-4.8-10.2-7.8-16.5c-4.6,5.4-8.9,10.6-14.2,16.9c0.4-6.1,0.6-10.9,0.9-16c0.8,0,2.3-0.1,4.5-0.3
			c-1.9-3.2-3.5-5.9-6.6-11c-1.8,9.9-3.7,17.3-4.2,24.7c-0.1,2,3.5,5.8,5.8,6.1c3.6,0.5,7.4-1.4,11.2-2.3c-0.7-3-1.3-5.4-2-8.4
			C70.5,361.7,73.6,364.5,76.7,367.2z M145.2,173.1c10.3,12.2,10.2,12.1,17.8-1.1c1.9-3.3,4.9-5.9,7.5-9c-3.4-1.9-7.5-4.1-11.2-6.2
			C154.4,162.5,149.7,167.9,145.2,173.1z M338.7,173.9c-6.9-5.7-9.2-19.2-20.1-11.8c-6.8,4.7,1.4,12,4.9,16.4
			C331.1,188,332.8,175.8,338.7,173.9z M62.8,188.7c-1.2,0.8-2.4,1.5-3.6,2.3c3.1,4.1,8.7,8.2,8.6,12.3c0,4.2-5.5,8.3-8.6,12.4
			c0.9,1.1,1.8,2.3,2.6,3.4c3.8-2.3,7.6-4.6,11.4-6.9c-0.4-0.7-0.8-1.5-1.2-2.2c3.4,0,6.9,0,10.3,0c0.4-0.8,0.8-1.5,1.2-2.3
			C76.6,201.4,69.7,195.1,62.8,188.7z M357.7,179.1c-1.6-4.2-2.9-7.4-3.6-9.2c7.5-3.6,14.5-7,23.7-11.4c-8.8-5.6-14.2-4.7-18.6-0.4
			c-5.8,5.7-10.9,12-17.3,19.1C346.9,177.9,351.4,178.4,357.7,179.1z M142,159.2c-2.9,3.2-4.7,4.4-5.2,6c-0.5,1.5,0.5,3.5,0.9,5.3
			c2-0.6,4.6-0.6,5.9-2c3.1-3.2,5.7-7,10.2-12.9c-3.3-1.8-7.4-5.6-11.8-6c-5.1-0.5-10.5,2-17.2,3.6c1.2,1.4,2.8,4.7,5.3,5.7
			C132.9,160.1,136.6,159.2,142,159.2z M124.8,179.1c6.7-0.7,10.8-1,15.1-1.5c-15.1-22.6-22.3-27.1-33.4-17.9
			c8.2,3.7,15.4,6.9,22.4,10C127.7,172.3,126.5,175.1,124.8,179.1z M357,151c-4.4,0.6-8.6,2.4-11.4,1.2c-8.2-3.5-12.2,0.5-15.9,5.5
			c3.4,3.3,6.2,5.9,8.9,8.8c1.2,1.3,1.9,3.4,3.3,4.2c0.9,0.5,3.8-0.6,4-1.4c0.4-1.7-0.4-3.7-0.8-5.5c-0.4-1.6-0.9-3.1-1.4-4.6
			c1.7-0.2,3.5-0.8,5.1-0.6C355.8,159.5,357.8,157.6,357,151z M365.4,224.5c7.4-2.3,14.2-4.3,23.6-7.2c-8.3-5-16.5-2.7-18.3-11.3
			c-0.3-1.2-4.8-1.5-7.5-2.3C364,211.1,364.6,217,365.4,224.5z M145.8,200.4c-4.5-1.9-7.1-3-10.1-4.3c3.2,11.3,15.4,16.4,28.6,11.2
			c-8.7-3.5-10.4-15.5-22.6-13.2C143.1,196.3,143.9,197.5,145.8,200.4z M110.5,213.5c-5,0.4-9.4,0.7-13.7,1.1
			c-0.1,1.3-0.3,2.5-0.4,3.8c6.4,1.9,12.8,3.7,19.6,5.8c1.3-7.2,2.4-13.5,3.6-20.1C110.8,203.7,108.5,207.8,110.5,213.5z
			 M317.8,208.2c16.1,3.4,26.3-1.2,29.4-12.1c-3.3,1.4-6,2.5-9.5,3.9c1.1-2.5,1.7-3.9,2.3-5.2c-0.7-0.7-1.4-1.4-2.1-2.2
			C331.8,197.3,325.7,202.1,317.8,208.2z M93.6,200.8c2.4,3.2,4.3,5.8,7.7,10.4c-1.7-15.2-11.9-21.9-26.7-19.3
			c4.6,5.4,8.8,10.3,13.4,15.7C90.1,204.9,91.5,203.3,93.6,200.8z M408.4,192c-17.2-1.2-26.7,5.3-26.2,17.9c2.9-3.1,5.3-5.6,7.9-8.4
			c1.3,2.2,2.5,4.1,4.1,6.8C399.5,202.2,403.4,197.8,408.4,192z M84.5,274.7c1-0.1,2-0.2,3-0.3c0-1.9,0.8-4.6-0.1-5.6
			c-4.7-5-9.6-9.7-14.9-13.9c-1-0.7-4.3,1.5-6.5,2.4c2.4,5.4,4.9,10.7,7.3,16.1c0.9-0.3,1.8-0.6,2.7-1c0.6-1.8,1.2-3.7,2.2-6.5
			C80.7,269.5,82.6,272.1,84.5,274.7z M183.8,204.4c-0.2-0.5-0.1,1.7,0.9,2.2c1.7,0.9,4.8,1.8,5.8,0.9c2.4-2.1,4-5,5.4-7.9
			c0.2-0.5-2.5-3.2-4-3.4c-3.7-0.7-7.5-0.8-11.3-0.6c-2.8,0.2-5.5,1.3-8.2,2c0.6,2.1,0.7,5.3,2,5.9
			C176.6,204.7,179.6,204.1,183.8,204.4z M299.5,203.7c3.6,0.2,6.3,1,8.5,0.3c1.3-0.4,2.5-3,2.7-4.7c0.1-1-2-3.2-2.9-3.1
			c-7.1,0.5-14.1,1.4-21.2,2.2c-0.3,0.9-0.5,1.9-0.8,2.8c3.2,2.5,6.2,5.2,9.7,7.2C295.9,208.5,298.5,204.9,299.5,203.7z
			 M426.6,210.3c3.4-3.8,7.3-7.1,9.4-11.3c0.9-1.8-1.5-5.7-3.2-8.2c-0.6-0.9-3.1-0.6-5.5-0.9c2,3.2,3.4,5.4,3.5,5.6
			c-4.9,2.5-9.2,4.7-14.6,7.5C420.9,206.2,423.8,208.2,426.6,210.3z M57.7,192.3c-1.1-1.3-2.2-2.6-3.2-3.8c-3,2-8.8,5.2-8.6,5.8
			c2.6,5.7,6.1,11,9.6,16.7c3.7-2.8,6.5-4.8,11.3-8.4c-6.2-2.7-10.8-4.8-16.8-7.4C52,194.4,54.9,193.4,57.7,192.3z M161.4,138.3
			c0.8,2.5,1.6,4.9,2.8,8.7c4.3,1.3,10.8,3.4,17.7,5.5C177,140.3,169.2,135,161.4,138.3z M297,173.2c3.3,7.4,8.6,10.3,15.3,6.7
			c1.6-0.9,2.6-6.8,1.3-8.7C307.3,161.6,303.2,174.8,297,173.2z M386.1,586.8c4.6,10.5,11.3,9.3,17.8,7.7c1.7-0.4,3-3.1,4.4-4.7
			c-1.7-1.4-3.3-3.9-5-4C398.1,585.7,392.9,586.4,386.1,586.8z M186.6,174c-4.5-2.6-7.9-6.3-11-6c-9,0.7-11,7-4.4,12.3
			C177.4,185.1,182.6,179.8,186.6,174z M284.8,514.6c0.7,0.9,1.4,1.7,2.1,2.6c6.3-1,12.6-1.7,18.7-3.2c1.7-0.4,2.8-3.2,4.2-4.9
			c-2-1.5-4.7-4.7-5.9-4.2C297.3,507.6,291.1,511.3,284.8,514.6z M198.6,207.8c8.8,4.1,10.6,3.4,19.7-9.3c-4.6-0.6-8.8-1.1-11.9-1.5
			C203.4,201.1,201,204.4,198.6,207.8z M194.5,519.3c1.7-10.8-7-9.2-11.7-12.3c-2-1.3-5.5-0.5-8.3-0.2c-0.5,0.1-1.2,3.9-0.8,4.1
			c2.8,1.4,5.7,2.7,8.7,3.3c1.3,0.3,3-1.1,4.2-1.7C189.5,515,192,517.2,194.5,519.3z M390,220.6c3.7,4.4,7.5,8.9,11.4,13.4
			c1-0.5,2-1,3-1.5c-2.5-7.2-5-14.3-8.2-23.5C393.2,214.6,391.6,217.6,390,220.6z M77.3,346.1c4.4,0.3,6.8,1.1,8.6,0.4
			c2.6-1,6-2.6,6.9-4.9c1-2.6-0.3-6.1-0.5-9C86.9,337.4,82.2,341.7,77.3,346.1z M285,207.9c-3.1-3.6-5.6-6.6-8.6-10.2
			c-3.3,0.7-7.3,1.5-12,2.4C276.7,210.9,276.7,210.9,285,207.9z M386.6,349.6c-0.6,0.9-1.2,1.7-1.8,2.6c4.4,3.7,8.8,7.4,13.3,11.2
			c0.8-4.2,1.7-8.4,2.6-13.1C394.5,350,390.6,349.8,386.6,349.6z M81.3,350.6c1.6,5,2.9,8.9,4.1,12.9c4.1-3.9,8.3-7.7,12.4-11.6
			c-0.7-0.8-1.3-1.6-2-2.4C91.9,349.8,88,350.1,81.3,350.6z M78.7,232.1c0.8,0.7,1.7,1.4,2.5,2c3.9-4.5,7.8-9,11.7-13.5
			c-1.1-2.1-2.1-4-3.2-5.9c-0.7-1.1-1.4-2.7-2.4-3c-0.8-0.3-2.8,0.8-3.1,1.7C82.2,219.6,80.5,225.9,78.7,232.1z M405.7,345.8
			c-4.5-4.9-8.8-9.7-13-14.4c-0.8,0.4-1.5,0.9-2.3,1.3c-0.3,4.1-0.6,8.3-1,13.1C394.6,345.8,399.2,345.8,405.7,345.8z M92.8,591.2
			c-0.3-1.6-0.6-3.2-1-4.8c-6.4,0.3-13.6-4.3-18.7,3.4c0.2,1.3,0.4,2.6,0.5,3.8C80,592.8,86.4,592,92.8,591.2z M361.9,198.8
			c-2.2-1.6-4.7-3.4-7.5-5.5c-2,5-3.6,9-5.5,13.8c2.1,1.1,4.3,2.2,4.8,2.5C356.6,205.7,358.7,202.9,361.9,198.8z M146.2,558.2
			c0.3,1.4,0.6,2.9,1,4.3c4-0.4,8.6,0.2,11.9-1.6c2.4-1.3,3.1-5.7,5.2-10C156.2,554.2,151.2,556.2,146.2,558.2z M335.1,561.6
			c0.2-1.2,0.3-2.5,0.5-3.7c-5.1-2-10.3-4-18.5-7.3c2.8,4.9,3.9,9.4,6.5,10.6C326.7,562.8,331.2,561.6,335.1,561.6z M381.2,520.8
			c3.3-5.9,5.6-9.4,7.1-13.2c0.6-1.5-0.8-3.8-1.3-5.7c-2.3,0.9-6.5,1.6-6.6,2.7C379.9,509.2,380.7,513.8,381.2,520.8z M405.1,401.9
			c-2.4,1.7-4.6,3.1-7.2,4.9c4.5,5.1,8.7,10,13,14.9c0.5-0.4,1-0.7,1.4-1.1C410,414.5,407.7,408.4,405.1,401.9z M77.5,401.8
			c-2.4,6.6-4.6,12.7-6.8,18.8c0.4,0.3,0.8,0.7,1.3,1c4.3-4.9,8.5-9.7,12.9-14.8C82.4,405,80.1,403.5,77.5,401.8z M120.8,199.2
			c3.1,3.7,5.6,6.7,9,10.7c10.2-4.8-3.8-11.1-1.5-17.1C125.7,195.1,123,197.3,120.8,199.2z M395.3,143.9c-1.1,1-2.1,2-3.2,3.1
			c2.3,4,4.6,8,8.3,14.4c2-5.1,4.4-8.6,3.6-9.9C401.9,148.4,398.3,146.3,395.3,143.9z M381.2,228.2c-0.3-1.2-0.6-2.5-1-3.7
			c-4.9,1.4-10,2.6-14.7,4.5c-0.7,0.3-0.1,3.8-0.1,7.2C371.5,233.1,376.4,230.6,381.2,228.2z"/>
		<path id="XMLID_201_" class="st0" d="M17.8,445.4c2.4,3.5,4.8,7,6.9,10.1c6.6-2.4,12.4-4.5,18.3-6.6c0.3,0.7,0.6,1.4,0.9,2.1
			c-1.9,1.1-3.6,2.4-5.6,3.3c-12.6,5.6-13.9,15.8-5.4,27c3.2,4.3,1.8,12,2.6,19.1c-1,0,0.6,0.3,2-0.1c1.5-0.4,2.8-1.4,5.4-2.7
			c0,4.6,0,8,0,10.3c5.1,0.4,9.3,0.7,14.9,1.1c-6.3,11.1-8.4,20.3-0.6,31.1c4.3-5.5,8-10.2,12.3-15.6c3.3,3.1,6.4,5.9,10.3,9.5
			c10.9-14.2-1.9-26.9-1.4-41.1c3.5,2.4,10.2-0.2,6.5,7.6c-0.5,1,0.6,2.9,1.2,4.2c2.1,5.3,4.3,10.6,6.7,16.6c2.5,1,7.3,3.1,12.5,5.3
			c0.6-1.8,1.6-4.7,2.6-7.7c0.9-0.1,1.8-0.1,2.6-0.2c0.4,6.8,0.7,13.7,1.1,21.4c8.5-3.6,8.2,1.4,8.2,7.8c2.2-2.5,4.4-4.9,8.3-9.1
			c2.8,5.4,5.2,10,7.3,13.9c-22.4-2.8-43.3-5.4-64.2-7.8c-3.3-0.4-6.8,0-10,0.8c-15.9,4.2-19.6,15-9.5,28c3.1,4,6.4,8,10.1,11.3
			c5.8,5.2,10.1,10.6,13.2,18.3c2.2,5.6,10.3,9.5,16.4,12.8c4,2.1,9.3,1.5,13.8,2.8c4.5,1.3,8.7,3.4,14.5,5.7
			c-0.6-3.8-1-6.8-1.5-10.4c3.8-0.6,8-1.2,13.1-1.9c-8.9-13.8-23.7-13.4-36.3-16.8c-0.3-7.7,3.4-8.2,8.4-6.1
			c18.7,7.7,37.2,15.8,56.1,23.1c5.8,2.3,12.6,4.7,18.2,3.5c4.9-1,8.7-7,13-10.8c2.6-2.3,5.2-6.7,7.9-6.7c30-0.5,60-0.3,90-0.3
			c8.7,20.9,17,23.7,37.2,13c18.4-9.8,37.2-18.6,58.6-21.2c-10.7,7.9-26.9,8.4-32.5,24c4.3-0.4,8.3-0.8,12.8-1.2c0,3.4,0,6.9,0,10.1
			c10.5-4.2,20.9-8.3,31.2-12.5c2.1-0.9,4.3-2.2,5.8-3.9c9.5-10.4,19.4-20.6,27.8-31.8c3.6-4.8,7.4-14.5,5.2-17.6
			c-4.2-5.7-12.9-11.5-19.5-11.3c-22.1,0.7-44,4.1-67.2,6.5c1.3-2.9,3.4-7.5,6.1-13.6c4,4.3,6.3,6.7,10.4,11.2
			c-1-7.2-2.4-13.5,7.7-8.7c0-8.4,0-15.2,0-22c0.8,0,1.6,0,2.4,0.1c1,3,2,5.9,3.3,9.9c4.4-4.9,7.2-12,16-5
			c-6.1-10.3-2-16.1,4.8-21.2c-1.5-2.5-2.8-4.7-4.3-7.2c3.6-1.8,6.5-3.3,10.2-5.2c1.1,14.7-13.2,28.3-2,43.9c3.9-3.6,7-6.5,10.4-9.6
			c4.2,5.4,8,10.2,11.9,15.2c7.3-10,7.4-15.9,0.4-30.6c4.9-0.4,9.1-0.7,14.2-1.1c0-1.9,0-5.1,0-9.2c3.3,0.9,6.2,1.6,9.4,2.5
			c-1.3-8-5.3-15,3.7-21.6c6.8-4.9,2.3-20.2-5.6-24.2c-3.1-1.6-5.7-4-8.5-6l-0.3,0.3c4.7,1,10.7,0.5,13.9,3.3
			c5.9,5.1,7.1,1.8,8.8-2.8c1.3-1.6,2.5-3.1,3.8-4.7c0,60.1,0,120.3,0,180.6c-148.9,0-297.7,0-446.6,0
			C17.8,565.7,17.8,505.5,17.8,445.4z"/>
		<path id="XMLID_200_" d="M464.4,445.4c-1.3,1.6-2.5,3.1-3.8,4.7c-0.1-1.9-0.2-3.9-0.2-5.8c0.4-2.5,0.9-5,1.4-8
			c0.4,0.2,1.5,0.6,2.6,1C464.4,439.9,464.4,442.7,464.4,445.4z"/>
		<path id="XMLID_199_" class="st0" d="M334.8,148.9c-15.1,8.1-30.1,16.2-45.2,24.3c-4.4,2.4-8.9,4.6-13.2,9.4
			c32.3,1.9,64.6,3.7,96.8,5.6c0,0.4,0,0.8,0,1.2c-35.4,1.9-70.8,3.8-103.7,5.6c-4.4-9-7.1-17.9-12.6-24.6
			c-3.2-3.9-10.8-5.7-16.5-5.9c-14.3-0.4-23.3,10.5-24.4,29.3c-32.2-1.6-64.4-3.1-96.7-4.7c0-0.4,0-0.8,0-1.2
			c29.9-1.2,59.8-2.3,89.7-3.5c0.2-1,0.5-1.9,0.7-2.9c-23.2-13.1-46.4-26.2-69.6-39.3c0.3-0.6,0.6-1.2,0.9-1.8
			c22.4,10.3,44.8,20.6,67.2,30.9c0.4-0.6,0.8-1.2,1.2-1.8c-13.3-12.6-26.6-25.1-40-37.7c0.5-0.6,1-1.3,1.5-1.9
			c14.2,11.1,28.4,22.2,42.7,33.3c0.7-0.6,1.4-1.2,2.1-1.8c-12.5-23.9-25-47.9-37.4-71.8c0.5-0.3,0.9-0.6,1.4-0.8
			c16.3,23.2,32.6,46.4,50.4,71.7c4.7-32.6,9.1-62.5,13.4-92.5c0.7-0.1,1.3-0.1,2-0.2c2.4,30.1,4.8,60.1,7.2,90.2
			c0.7,0.3,1.4,0.6,2.1,0.8c14.7-20.5,29.3-40.9,44-61.4c1.7-1.9,3.4-3.7,5-5.6l0,0c-1.3,4.3-2.7,8.7-4,13
			c-11.4,19.6-22.9,39.1-34.3,58.7c0.7,0.4,1.3,0.8,2,1.3c18.7-14.2,37.4-28.3,56.1-42.5c-6.6,7.4-13.3,14.8-19.9,22.2
			c0,0,0.3-0.3,0.3-0.3c-10.8,9.1-21.7,18.3-32.5,27.4c0.5,0.8,0.9,1.5,1.4,2.3c4.8-2.1,9.6-4.2,14.5-6.1
			C303.3,161.7,319.1,155.3,334.8,148.9z"/>
		<path id="XMLID_198_" d="M303.9,144.8c6.6-7.4,13.3-14.8,19.9-22.2c0.9,0,1.8,0,2.6,0c-0.2,1.7-0.3,3.3-0.5,5
			c3.2,0.6,6.5,1.3,10.1,2c-1.3,4.6-2.3,8.4-4.1,15.3c25.4-10.8,48.7-20.8,72.1-30.8c0.3,0.7,0.6,1.3,0.9,2
			c-17.9,9.2-35.9,18.4-53.8,27.7c-5.4,1.7-10.8,3.4-16.2,5c-15.8,6.4-31.5,12.8-47.3,19.2c-4.9,2-9.6,4.1-14.5,6.1
			c-0.5-0.8-0.9-1.5-1.4-2.3c10.8-9.1,21.7-18.3,32.5-27.4c-0.9,2.6-1.8,5.2-2.7,7.7c0.5,0.4,1.1,0.9,1.6,1.3
			c2.8-2.2,5.6-4.5,8.3-6.7c2.9,2.1,5.7,2.4,8.4,2c1.3-0.2,2.4-1.7,4.6-3.4c-3.4-0.4-5.1-0.7-7.2-0.9c1.9-2.1,3.5-3.9,5.2-5.7
			c-0.4-0.8-0.7-1.7-1.1-2.5c-2.5,0.7-5.3,1.1-7.6,2.3C310.2,140.4,307.1,142.8,303.9,144.8z"/>
		<path id="XMLID_197_" d="M326.4,122.6c-0.9,0-1.8,0-2.6,0c-18.7,14.2-37.4,28.3-56.1,42.5c-0.7-0.4-1.3-0.8-2-1.3
			c11.4-19.6,22.9-39.1,34.3-58.7c-3.6,8.2-7.2,16.4-10.7,24.5c3.1,1.9,6.8,4.1,11,6.6c25.4-19.9,51.2-40.1,77-60.3
			c0.6,0.8,1.3,1.6,1.9,2.3C361.6,93.1,344,107.8,326.4,122.6z"/>
		<path id="XMLID_196_" class="st0" d="M438.1,449.3c-2.9,2-5.9,4-7.9,5.3c-3.8-3.2-7.6-6.4-12.8-10.9c8.2-2.3,15.2-4.2,22.2-6.1
			c1.5,0.1,2.9,0.3,4.4,0.4c-2.1,3.8-4.2,7.7-6.3,11.5L438.1,449.3z"/>
		<path id="XMLID_195_" d="M437.8,449.6c2.1-3.8,4.2-7.7,6.3-11.5c1.2,2.9,2.3,5.9,3.1,7.8c5.3-0.7,9.2-1.1,13.1-1.6
			c0.1,1.9,0.2,3.9,0.2,5.8c-1.7,4.7-2.9,7.9-8.8,2.8C448.6,450.1,442.6,450.6,437.8,449.6z"/>
		<path id="XMLID_194_" d="M304,92.2c6.6-10.5,13.1-21,19.7-31.5c1.3,0.9,2.5,1.8,3.8,2.7C319.6,73,311.8,82.6,304,92.2L304,92.2z"
			/>
		<path id="XMLID_191_" class="st0" d="M237.1,365.3c0,49.1,0,97.4,0,147.7c-9.6-1-18.9-1.4-27.9-3.1c-36.4-7.2-61.4-28.3-74.6-63.1
			c-9.9-26-12.3-53.1-12.2-81.5C160.6,365.3,198.2,365.3,237.1,365.3z M167.5,442c-3,0-5.7,0-8.2,0c0,4.2,0,7.7,0,11.9
			c3.5-0.4,6.2-0.8,9.2-1.1C168.1,448.7,167.8,445.5,167.5,442z"/>
		<path id="XMLID_186_" class="st0" d="M358.8,359.3c-38.6,0-76.6,0-115.5,0c0-47.7,0-95.1,0-143.2c38.3,0,76.6,0,115.5,0
			C358.8,263.9,358.8,311.3,358.8,359.3z M285.8,336.5c23.7,0,45.8,0,67.8,0c0.6-0.9,1.3-1.8,1.9-2.6c-4.5-4.3-8.4-10-13.7-12.7
			c-8.7-4.5-14.2-11-18-19.6c-1.4-3.1-3.1-6.1-4.2-8.4C308.2,307.7,297.4,321.6,285.8,336.5z M309.4,293.7
			c4.8-9.3,10.1-18.3,14.1-27.9c4.8-11.6-4.7-29.6-16.6-33.3c-13.4-4.1-27.6,3.2-31.2,16.8c-1.8,6.7-1.6,13.9-2.3,20.9
			c2.4-14,8.4-18.4,24.6-15.8c4.2,0.7,9.1,3.4,11.8,6.7C318.5,271.7,310,282.6,309.4,293.7z M273.4,336.8c4-11.6,8-23.3,10.5-30.7
			c-9.9,9.3-21.9,20.5-32.8,30.7C256.8,336.8,264.7,336.8,273.4,336.8z"/>
		<path id="XMLID_183_" class="st0" d="M243.4,365.1c38.3,0,76.4,0,115.9,0c-0.3,40.3-3.2,79.5-29.9,112.1
			c-21.8,26.7-52.1,34.5-86,35.4C243.4,463.3,243.4,414.5,243.4,365.1z M270.3,443.7c3.6,9.1,6,17.7,10.3,25.1
			c6.8,11.5,18.1,11.8,24.9,0.3c4.2-7.1,8.4-15.7,8.2-23.5c-0.4-22,6.7-37.8,28.5-45.4c1.7-0.6,2.6-3.9,3.8-5.9
			c-2.6-0.2-5.7-1.3-7.7-0.3c-7.7,4-15.1,8.7-22.5,13.1c-3.4-8.3-5.7-16.5-9.9-23.6c-7.1-11.9-18.7-11.8-25.4,0.3
			c-4.2,7.5-8,16.4-8.2,24.6c-0.2,17.2-2.6,31.8-21.5,38c-1.3,0.4-1.7,3.6-2.5,5.5c2.1,0.3,4.6,1.6,6.1,0.9
			C259.9,450.2,265,446.9,270.3,443.7z"/>
		<path id="XMLID_180_" class="st0" d="M122.6,359.2c0-48.1,0-95.3,0-143.1c38.2,0,75.8,0,114.1,0c0,47.6,0,95,0,143.1
			C198.9,359.2,161.3,359.2,122.6,359.2z M220.7,237.7c-13.9,5.5-26.6,6.4-39.5,0.8c-1.7-0.7-4.1-0.9-5.8-0.2
			c-13.1,5.7-26.2,5.2-39.8-0.7c0,28.4-0.4,55.6,0.2,82.8c0.2,7.9,6,12.2,14,13.5c8.6,1.4,17,3.7,25.5,5.4c1.8,0.4,3.9,0.2,5.8-0.2
			c8.2-1.7,16.3-3.9,24.5-5.2c9-1.4,14.7-6.2,14.8-15.1C221,292.4,220.7,265.8,220.7,237.7z"/>
		<path id="XMLID_169_" class="st0" d="M118.1,522.3c8-7.6,15.3-14.6,22.8-21.7c65.7,35.5,131.3,46.2,196.5,0
			c7.4,6.9,14.6,13.5,21.8,20.2C291,573.5,196.2,575.4,118.1,522.3z M265.2,537.1c1,5.9,2,11.6,2.9,17.2c11.2,0.5,11.2-5.4,9.7-12.6
			C276.2,533.8,271.7,534,265.2,537.1z M331.7,532.5c-5.9-18.1-7.1-18.8-15.8-10.6c2.8,4.9,5.6,9.8,8.3,14.7c0.6-0.3,1.3-0.7,1.9-1
			c-0.4-2.5-0.7-5-1.4-9.7C328.2,529.1,330,530.8,331.7,532.5z M172.7,542.4c9.4-16.7,9.4-16.7-2-19.6c-1.9,5.5-3.7,11-5.6,16.5
			c0.9,0.6,1.7,1.2,2.6,1.8c1-2.6,2-5.3,3-7.9c0.9,0.6,1.7,1.3,2.6,1.9C173.1,537.6,172.9,540,172.7,542.4z M230.4,537
			c-1.1-0.2-2.3-0.3-3.4-0.5c-2.1,5.8-4.1,11.6-5.8,16.4c4.5,0.6,7.8,1,11.9,1.5C232.3,549,231.3,543,230.4,537z M293.1,544
			c-0.1,1-0.3,1.9-0.4,2.9c2.5,0.1,6,1.4,7.2,0.2c11.2-10.8-5.8-8.1-6.9-14.1c2.4-0.2,4.4-0.4,6.5-0.6c-0.2-1.1-0.4-2.1-0.6-3.2
			c-2.8,0.7-7.4,0.5-8.3,2.2c-5,9.5,7.6,6.5,9.4,12.7C297.5,544,295.3,544,293.1,544z M182.2,541.2c-0.4,1.4-0.9,2.8-1.3,4.2
			c3.6,0.1,7.2,0.2,10.7,0.3c-1-4.5-2-8.9-3.2-14.3c2.4,1.5,4.1,2.6,5.9,3.6c0.5-0.9,1-1.9,1.5-2.8c-2.7-1.1-6.3-3.9-8-3.1
			c-9.7,4.7,2.6,9.7,0.2,15.7C185.8,543.4,184,542.3,182.2,541.2z M248.7,542.4c0.3-1,0.5-2,0.8-3c-2.8-0.4-6.7-2.3-8.2-1.1
			c-9.1,7.3,5.8,8.8,4.2,15.2c-2.4-0.7-4.5-1.2-6.5-1.8c3.1,5.5,7.7,7.5,9.8,1.5c1-2.9-3.7-7.8-6.3-12.6
			C244.9,541.4,246.8,541.9,248.7,542.4z M158.9,516.9c-8.7,17.2-8.7,17.2,0.3,19.1c-4.6-4.4-4-7.2,2.7-7.8
			c-3.5-4.6-3.8-7.9,3.6-8.7C163.4,518.7,161.3,517.8,158.9,516.9z M139.3,528.3c1,0.5,2.1,1.1,3.1,1.6c3.9-4.7,7.8-9.5,11.7-14.2
			c-0.7-0.7-1.4-1.4-2.1-2c-1.8,3.2-3.7,6.4-5.5,9.6c-0.7-0.7-1.4-1.4-2.1-2c0.4-3.4,0.9-6.9,1.3-10.3c-0.8-0.1-1.5-0.3-2.3-0.4
			C142.1,516.4,140.7,522.4,139.3,528.3z"/>
		<path id="XMLID_163_" class="st0" d="M164,584.7c7.9,3.2,7.5,22,23.4,14.2c-0.9,12.7-9.7,18.1-21.2,13.5c-6.6-2.6-12.4-7.1-19-9.5
			c-19.6-7-39.3-13.9-59.3-19.6c-5.7-1.6-12.6,1-22,2c-3.6-4.1-9.6-10.5-14.8-17.4c-5.2-6.9-3-13.1,4.3-16.7
			c4.7-2.3,10.3-3.7,15.5-3.8c29.9-0.3,58.3,6.5,84.5,21.1c3.6,2,6.3,5.4,10.6,9.3c-10.5,4.2-8.6,10.7-6.6,18.2
			c-1.8-1.4-3.5-2.8-5.3-4.2c-0.6,0.8-1.3,1.7-1.9,2.5c2.6,1.7,5.2,3.4,7.8,5.1C161.3,594.5,162.6,589.6,164,584.7z M119.2,562.5
			c-1.1,0-2.1,0-3.2,0.1c-1.7,5.5-3.3,11.1-5,16.6c0.7,0.2,1.4,0.5,2.1,0.7c1.1-2.1,2.2-4.2,3.4-6.6c1,3.6,1.9,6.7,2.7,9.8
			c1,0,2-0.1,2.9-0.1c1.7-5.6,3.4-11.3,5-16.9c-0.6-0.3-1.2-0.5-1.9-0.8c-1.1,1.8-2.1,3.6-3.3,5.6
			C121.1,568,120.1,565.3,119.2,562.5z M78.3,557.4c-0.5,6.1-0.9,11.6-1.3,17.1c0.7,0.2,1.4,0.3,2.1,0.5c1.1-2.2,2.1-4.5,3.7-7.7
			c1.6,3.5,2.7,5.7,4.4,9.4C89.4,557.3,89.4,557.3,78.3,557.4z M105.5,576.6c-0.6-5.5-1.2-11.4-1.8-17.4c-1.1-0.2-2.2-0.3-3.3-0.5
			c-2.4,5.7-4.8,11.5-6.7,16.1C98.3,575.5,101.7,576,105.5,576.6z M138.8,587.7c0.3-1.1,0.5-2.2,0.8-3.4c-2-0.1-4.1-0.2-7.2-0.4
			c2-4.7,3.5-8.3,5.1-12.1c2.3,1.8,3.8,3,5.4,4.2c0.6-1,1.1-2.1,1.7-3.1c-2.8-1.1-5.7-2.3-8.5-3.4c-2,5-4,10.1-6,15.1
			C133,585.7,135.9,586.7,138.8,587.7z"/>
		<path id="XMLID_157_" class="st0" d="M294.1,598.4c11.4,1.5,23.6,6.2,24.5-10.7c4.9,3.8,9.1,7.4,13.6,10.4
			c0.3,0.2,3.2-3.5,4.9-5.4c-0.7-0.6-1.3-1.2-2-1.9c-1.4,1.5-2.8,3-4.9,5.2c-2.2-3.8-4.1-7.2-6.6-11.6c2.9-0.5,5-0.9,7-1.3
			c0-0.7,0-1.4,0-2.1c-2.5-0.3-5.1-0.7-7.8-1c0.6-8.5,5.6-13.2,13.4-16.7c23.5-10.5,48.1-15.9,73.8-15.9c3.7,0,7.5,0.4,11,1.4
			c13.1,3.9,15.7,11.8,7.3,22.5c-4.4,5.6-9.4,10.6-14.7,12.9c-9.3,0-19.4-2.3-27.8,0.4c-21.7,7.1-42.7,16.5-64.1,24.7
			c-5.2,2-11,4.2-16.3,3.9C297.8,612.9,293.2,607.9,294.1,598.4z M368.5,564.4c1.4,5.9,2.6,11.3,4,17.2c6.9-0.8,11.5-1.9,9.8-9.8
			C380.7,564.5,378.3,559.5,368.5,564.4z M402.2,577.5c-2.9-7.2-5.2-12.9-7.5-18.7c-1.1,0.1-2.1,0.3-3.2,0.4
			c-0.8,6-1.6,12.1-2.4,18.1c0.6,1.5,1.2,3,1.9,4.5C393.1,569.1,397.2,576,402.2,577.5z M341.9,590.8c4.1-1.7,7.4-3,11.2-4.6
			c-3.5-4.5-7.3-9.3-11-14.1c-1.1,0.6-2.1,1.2-3.2,1.7C340,579.9,341,585.8,341.9,590.8z M411.9,561.5c0.7,0.1,2.9,0.3,5.1,0.5
			c0.1-1.1,0.2-2.3,0.2-3.4c-3,0-7.2-1.3-8.7,0.2c-7.6,7.8,5.8,8.2,5.5,14.7c-2.6-0.6-4.8-1-7-1.5c-0.1,1.1-0.2,2.2-0.3,3.3
			c3.2,0,6.4,0,9.5,0C414.9,570.7,413.4,566.2,411.9,561.5z"/>
		<path id="XMLID_149_" class="st0" d="M163.6,569.5c53.1-8.2,105.1-7.3,158.8,0.8c-3.7,9.2-7.1,17.7-10.8,26.9
			c-9.8-1.1-19.4-3.1-29.1-3c-32.7,0.3-65.4,1-98.1,2.5c-6.2,0.3-9.1-0.6-11.3-6.3C170.5,583.5,167.1,577,163.6,569.5z M252.2,577.1
			c-4-3.7-6.6-6.1-9.2-8.5c-1.8,3.3-5.1,6.7-5,10c0.1,3.1,3.8,6,6,9.1C246.3,584.7,248.6,581.8,252.2,577.1z M283.2,567
			c-0.6,9.2-0.9,14.9-1.2,20.6c3.3-1.9,4.7-4.1,6.2-6.2c1.8-2.6,3.6-5.1,5.5-7.7C290.9,572,288.2,570.3,283.2,567z M213.6,586.1
			c-1.5-5.2-3.2-11.1-4.9-16.9c-1.1,0.1-2.2,0.1-3.3,0.2c-1.2,5.9-2.4,11.9-3.3,16.7C206.4,586.1,209.6,586.1,213.6,586.1z
			 M302.7,579.9c1.5,4.3,2.5,7,3.4,9.6c0.6,0,1.3-0.1,1.9-0.1c0.4-5.8,0.8-11.6,1.2-17.4c-0.6-0.1-1.2-0.2-1.8-0.3
			c-1.2,2.3-2.3,4.6-3.9,7.7c-1.5-3.4-2.5-5.6-3.5-7.9c-0.6,0.2-1.2,0.3-1.7,0.5c0,5.5,0,11.1,0,16.6c0.4,0.1,0.9,0.1,1.3,0.2
			C300.3,586.5,301.2,584.2,302.7,579.9z M254.3,582.4c-0.4,0.9-0.7,1.9-1.1,2.8c3,0.6,7.2,2.9,8.7,1.7c9.6-7.5-5.3-8.9-4.2-15.4
			c2.4,0.8,4.4,1.4,6.5,2.1c0.2-1,0.5-2,0.7-3.1c-3-0.3-7.2-2.1-8.7-0.7c-8.7,7.3,6.9,8.6,4.2,15.5
			C258.1,584.2,256.2,583.3,254.3,582.4z M188.4,575.9c0.3-1.2,0.6-2.5,0.9-3.7c-3,0-6,0-9,0c0.1,5.4,0.2,10.8,0.3,16.2
			c3-0.2,5.9-0.3,8.9-0.8c0.3,0,0.2-2.2,0.4-4c-2.4,1.3-4.2,2.3-7.1,3.9c0-5.3,0-9.4,0-13.9C185.2,574.6,186.8,575.2,188.4,575.9z"
			/>
		<path id="XMLID_145_" class="st0" d="M354.1,513.2c-4.3-5.3-9.4-11.5-12.9-15.8c-7.3-1.4-11.1,10.1-16.6-0.1
			c23.8-20.1,50.3-35.4,78.7-47.3c3.2-1.3,9.6,0.6,12.2,3.3c10.5,10.8,7.3,24.2-5.9,30.9C391.7,493.3,373.9,502.9,354.1,513.2z
			 M376.1,492.7c-4.6-3.5-7.4-10.1-17-11.9c3.1,8,5.3,13.6,6.8,17.5C370,496.1,372.9,494.5,376.1,492.7z M405.9,462.9
			c-0.2-1-0.4-1.9-0.6-2.9c-2.8,0.8-7.1,0.8-8,2.6c-5.1,10.3,9.3,5.4,10.1,12.7c-2.5,0-4.7,0-6.8,0c0.2,1.2,0.4,2.3,0.6,3.5
			c3-0.9,7.8-1.1,8.6-3c4.4-10.1-8-5.9-10.5-11.6C401.7,463.7,403.8,463.3,405.9,462.9z"/>
		<path id="XMLID_140_" class="st0" d="M152.6,500.8c-4-1-7.9-1.9-12.8-3.1c-5.1,4.7-11,10.2-16.2,14.9
			c-20.6-10.6-40.4-20.7-60-30.9c-7.8-4.1-9.1-13.3-3.7-24c3.8-7.7,8.9-11.1,17.9-7c27.1,12.4,52.7,27.1,75.6,46.2
			C153.1,498.1,152.9,499.4,152.6,500.8z M94.2,481.9c0.8,3.7,1.5,6.5,2.1,9.3c0.8,0.1,1.6,0.1,2.4,0.2c2.8-5.4,5.7-10.8,8.5-16.2
			c-0.5-0.3-1.1-0.6-1.6-0.9c-1.8,2.4-3.7,4.8-5.6,7.4c-0.2-4.1-0.3-7.8-0.5-11.4c-1-0.1-1.9-0.2-2.9-0.3c-2.7,5.2-5.4,10.5-8,15.7
			c0.6,0.3,1.1,0.6,1.7,0.9C91.4,485.4,92.4,484.1,94.2,481.9z M78.7,461.1c-1-0.3-2-0.6-3-0.9c-1.5,5.7-3.2,11.4-4.2,17.1
			c-0.1,0.4,6.1,2.9,6.5,2.4c3.3-4.6,6-9.6,8.8-14.5c-1-0.4-1.9-0.9-2.9-1.3c-2.4,4.6-4.8,9.2-7.2,13.8c-0.9-0.4-1.8-0.8-2.7-1.2
			C75.5,471.3,77.1,466.2,78.7,461.1z M126.3,501.3c1.7-5.4,2.7-8.6,3.7-11.9c-0.8-0.3-1.6-0.5-2.4-0.8c-2.3,5.8-4.5,11.6-6.8,17.4
			c1.1,0.6,2.2,1.2,3.3,1.8c4.4-4.2,8.8-8.4,13.2-12.6c-0.5-0.6-1-1.1-1.5-1.7C133.1,495.8,130.4,497.9,126.3,501.3z"/>
		<path id="XMLID_139_" class="st0" d="M104.5,267.2c6.2,1.6,2.3,5.1,2,8.5c-1.2,11.1-2.8,22.3-2,33.3c0.3,4.4,6.3,8.5,10.2,13.2
			c-1,0.6-3,1.7-5.2,2.9c2,4.4,15,6.7,2.6,13.9c1.6,1.4,3.5,3,5.4,4.5c-0.3,0.8-0.6,1.6-0.8,2.4c-3.1-0.6-6.2-1.2-9.2-1.9
			c-1.3,2.3-2.8,5-5,9.1c-1.5-3.8-2.3-5.8-3.1-7.7c-1-2.5-2.1-5-3.2-7.5c2.8,0.2,5.6,0.5,8.5,0.7c0.5-0.7,1-1.4,1.5-2.1
			c-7-4.8-14-9.6-23.2-15.7c-1.9-1.9-6.2-5.6-9.6-10c-1.2-1.5-0.2-4.8,2.1-7.6c1.1,1.9,2.2,3.8,3.4,5.8c2.4-3.7,4.3-6.6,6.5-10
			c-3.3-2.6-3.3-3.2,1.1-8.4c0.2-0.3,0.6-0.6,0.6-0.8c-3.8-15.3,10.4-16.4,18-22.8L104.5,267.2z"/>
		<path id="XMLID_138_" class="st0" d="M263.3,189.3c0,11.9-9.9,21.9-21.7,22c-11.7,0.1-22-10-22.3-21.7
			c-0.3-12.2,10.1-22.5,22.5-22.3C253.8,167.5,263.4,177.3,263.3,189.3z"/>
		<path id="XMLID_137_" class="st0" d="M397.4,299.1c2,2.9,4.2,5.9,6.8,9.6c0.9-1.6,1.9-3.3,2.8-5c1,0,1.9,0,2.9,0
			c-0.2,2.5,0.5,5.7-0.8,7.4c-2.9,3.9-6.8,7-8.5,12c-5.1,2-10.3,4-16.6,6.4c-0.9-0.5-3.4-2.1-6-3.6c1.6,4.7,8.2,8.2-0.6,11.3
			c3.8,1.2,6.9,2.1,9.9,3.1c-2,3.5-4.1,7.1-6.9,11.9c-1.7-2.7-3.3-5.2-5-7.9c-2.7,0.5-6,1.1-9.2,1.7c-0.7-1.1-1.5-2.1-2.2-3.2
			c2.3-1.1,4.5-2.3,6.9-3.5c-8.8-5-8.7-5.5,2.9-14.1c-2.4-1.1-4.6-2-5.6-2.4c4.2-5.8,11-11,11.4-16.7c0.7-10.5-2.4-21.2-4-31.8
			c-0.3-1.8-0.6-3.6-1.2-6.6c4.7,1.5,8.4,2.7,11.6,3.8c1.1,15.9,2.2,31.4,3.2,46.9c1.3-0.1,2.5-0.1,3.8-0.2
			c-1.3-14.5-2.5-29.1-3.8-43.6c1.2-1.1,2.3-2.2,3.5-3.3c0.6,2.2,1,4.5,1.8,6.7c1.7,4.9-0.7,11.7,6.5,14.1
			C399.8,294.7,398.3,297.5,397.4,299.1z"/>
		<path id="XMLID_136_" class="st0" d="M423.9,218.2c5.2-5.2,10.4-10.4,15.7-15.6c0.7,0.5,1.5,1,2.2,1.4c-1.1,6.5-2.2,12.9-3.3,19.4
			c0.7,0.3,1.5,0.7,2.2,1c2.2-1.7,4.3-3.4,7-5.4c0.1,1.4,0.8,3.2,0.2,3.6c-8.6,7.4-9.2,18.4-13.1,27.9c-2.5,6.1-9.5,6.3-17.1,0.3
			c2.1-1.6,4-3,5.9-4.5c0.1-0.3,0.3-0.8,0.2-1c-2.1-2.6-4.2-5.1-7.9-6.8c0.8,2,1.7,4.1,2.8,6.9c-2.5,1.2-5.3,2.4-6.6,3.1
			c-1.9-4.8-3.5-8.8-5.2-13.2c1.4-0.5,3.1-1.1,4.5-1.6c-2.7-5.5-5.3-10.9-8.7-17.7c7.2,2.3,13.3,3.7,18.7,6.5
			c1.1,0.5-0.7,6.5-1.1,10c6.2,1,7.8-3.6,3.9-14.7L423.9,218.2z"/>
		<path id="XMLID_135_" class="st0" d="M33.1,217.3c4.4,3.6,6.5,5.3,8.5,7c0.8-0.2,1.6-0.4,2.4-0.7c-0.9-6.4-1.9-12.8-2.9-19.6
			c10.7,3,15.3,10.2,15.3,20.5c0,3.3,2.9,6.7,4.5,10c1.1-0.7,2.2-1.4,3.3-2.1c-1.8-2.3-3.6-4.7-6.4-8.3c7.1-2.9,13.5-5.4,22-8.8
			c-3.1,7-5.6,12.6-8.2,18.4c1.1,0.4,2.8,0.9,4.9,1.7c-3,6.5-6,10.8-11.1,1.7c-2.6,3.1-4.7,5.6-7.4,8.8c2.2,1.3,4.2,2.4,6.4,3.7
			c-6.4,8.9-10.9,8.2-15.7-1.6C44.3,238.6,39.4,229.4,33.1,217.3z"/>
		<path id="XMLID_134_" class="st0" d="M370.9,431c2.5-2.3,6-5.5,11.1-10.1c3.6,6.3,7.4,11.4,9.2,17.2c0.5,1.6-5.4,7.7-7.5,7.3
			c-5.5-1.1-10.5-4.7-16.4-7.6c-0.1,0.5-0.9,3-2.5,8.4c-3.2-5.7-5.2-9.2-6.2-10.9c8.4-20.2,6.9-40.3,9.5-59.5
			c6,2.2,8.9,7.9,6.9,12.9c-2.4,6.1-4.7,12.5-5.2,19C369.2,415.4,370.4,423.1,370.9,431z"/>
		<path id="XMLID_133_" class="st0" d="M104.9,266.9c-12.6,2.8-20-4-28.1-15.6c5.8,2.6,9.2,4.1,11.4,5.1c4.2-5,7.8-9.3,11.4-13.7
			c-0.2-0.4-0.5-0.8-0.7-1.3c-2.6,1.8-5.1,3.9-7.9,5.3c-2.5,1.3-5.5,1.8-8.3,2.6c-0.3-3.1-2.1-7.1-0.7-9c3.6-5.3,8.5-9.6,15.1-13.2
			c-0.9,2.8-1.7,5.6-2.7,8.8c11.9-2.8,12.1,9,16.2,15c3.8,5.5-0.9,11.8-5.9,16.2C104.5,267.2,104.9,266.9,104.9,266.9z"/>
		<path id="XMLID_132_" class="st0" d="M411.4,273.3c0.9,1.4,2.6,2.7,2.6,4.1c0,2.8-0.8,5.6-1.3,8.4c1,0.2,2,0.5,3,0.7
			c0.8-1.6,1.6-3.2,3.6-6.9c2.8,10.3,5.1,18.8,7.2,26.6c1.2-0.2,3.7-0.6,6.3-0.9c-0.1,2.3-0.3,4.7-0.4,7c2.6,4.2,5.3,8.3,8.3,13.1
			c-3.9,1.4-6.6,2.4-10.1,3.7c-0.5-2.4-1.1-4.7-2.1-9.4c-1.9,8.2-3.2,14-4.5,19.8l0.3-0.3c-1.3-0.4-5.5-11-5.1-13
			c3-16.6,3-16.6-8-25.7c1.9-2.8,3.8-5.6,5.4-7.9c-3.8-0.5-7.2-0.9-10.7-1.3c1-4.8,1.8-9.7,3.1-14.5c0.4-1.5,1.9-2.6,2.9-3.9
			C411.7,272.9,411.4,273.3,411.4,273.3z"/>
		<path id="XMLID_131_" class="st0" d="M114.4,375.7c1.1,9.6,2.2,18.9,3.1,28.1c0.4,3.7,0,7.5,0.8,11c1.4,6.1-1.6,13.7,5.8,18.3
			c0.8,0.5-2.3,7.1-4.6,13.8c-2.6-5.5-3.8-8.2-5.1-10.9c-2.7,3-5.5,6-8.2,9c-1-0.3-1.9-0.6-2.9-0.9c0-4.8,0-9.7,0-15.6
			c-5.6,5.1-5.7,10.6-2.4,17.1c-13.6-5.1-13.3-10.7,1.3-23.3c3.4,3.2,7,6.4,10.4,9.5c0-12.7,0.1-25.2-0.1-37.7
			c0-1.1-1.5-2.1-2.3-3.1C104.9,383.9,105.7,381.2,114.4,375.7z"/>
		<path id="XMLID_130_" class="st0" d="M388.4,235.8c-0.9-3.3-1.7-5.9-2.4-8.5c0.6-0.4,1.3-0.8,1.9-1.2c4.2,4.3,9,8.3,12.5,13.1
			c1.6,2.2,1.7,6.9,0.3,9.1c-1.2,1.8-5.5,1.5-7.4,3.1c-2.8,1.9-5.5,4.8-8.5,5.2c-1.5,0.2-3.6-4.2-6.5-7.7c0,2.7-1.1,7.9,0.2,8.6
			c3.4,1.9,8.3,3.2,11.9,2.1c4.7-1.3,8.6-5.1,14.7-9c-7.2,13.6-15,18.3-24.5,15.7c-6.2-1.7-9.5-5.5-8.8-12.5
			C372.7,245.6,380.1,236.9,388.4,235.8z"/>
		<path id="XMLID_129_" class="st0" d="M62,281.4c1.9,1.3,3.7,2.6,6,4.2c2.1-2,4.9-4.6,10.2-9.7c-0.6,7.1-0.1,11.7-1.7,15.5
			c-0.5,1.3-6,0.5-10.1,0.7c1.7,2.6,3.5,5.3,5.4,8.1c-12.1,10.8-13.7,31.3-3.5,43.6c-0.7,0.5-1.4,1-2,1.5
			c-3.7-5.1-9.2-9.7-10.6-15.3c-1.4-5.4,1.4-11.8,2.3-17.8c-1-0.1-2-0.2-3-0.3c-0.7,5.5-1.5,11-2.3,17.1c-3.1-1.1-5.7-2-9.5-3.4
			c3.4-7.1,6.8-14,10.4-21.6c1,0.9,2.4,2.3,2.8,2.7c2-8.5,4.1-17.1,6.1-25.8L62,281.4z"/>
		<path id="XMLID_128_" class="st0" d="M75.2,597.7c18.6-2.8,33.7,3.1,48.4,11.8c-3.5,0.2-7,0.4-11.3,0.7c0.9,2.6,1.8,5,2.6,7.3
			c-0.5,0.2-1.2,0.9-1.5,0.7C101,611.6,81.5,618.6,75.2,597.7z"/>
		<path id="XMLID_127_" class="st0" d="M111.3,349c1.9,2.4,5.2,4.7,5.3,7.2c0.1,2.3-3.2,4.8-5.3,7.6c0.8,0.5,2.4,1.4,6.4,3.8
			c-5.1,1.2-8,1.9-10.9,2.5c-14.6,4-11.9,19.3-19.4,30.1c-4.8-9.2-4.2-19.8-6.9-29.2c2.9-1.4,5.5-3.2,8.3-3.8
			c2.4-0.5,5.1,0.4,8.3,0.7c-0.5-1.6-1.1-3.9-2-7.1c8.4,1.7,16.2,2.4,12.9-10.8C109,349.7,110.2,349.3,111.3,349z"/>
		<path id="XMLID_126_" class="st0" d="M84.1,160.5c3.8-2.2,7.6-4.5,11.4-6.7c-0.7-1.3-1.5-2.5-2.2-3.8c2.9,1.7,5.9,3.4,11.3,6.5
			c-6.7,2-10.7,3.2-14.7,4.4c3.4,5,1.6,19.6-2.5,23c-6.4-8.7-6.6-8.7-12,2.1c-10.2-8.2-10.6-19.2-0.6-26.7c1.3-0.9,4.4,0.7,6.7,1.1
			C82.3,160.4,83.2,160.4,84.1,160.5z"/>
		<path id="XMLID_125_" class="st0" d="M412.2,439.4c-2.8-4.6-5.7-9.1-8.5-13.7c-0.5,0.2-1.1,0.5-1.6,0.7c2,4.8,4.1,9.5,6.1,14.3
			c-0.6,0.4-1.1,0.7-1.7,1.1c-8.1-8.9-16.2-17.8-24.9-27.4c-1.1,0.7-3.2,2.2-5.3,3.6c-0.6-0.6-1.1-1.3-1.7-1.9
			c2.8-2.6,5.6-5.2,9.5-8.9c1.3,2.5,2.4,4.5,3.4,6.5c0.9-0.9,1.8-1.7,2.7-2.6c-5.4-5.5-10.8-10.9-18.2-18.4c5.1,2.3,7.8,3.5,9.2,4.2
			c0.6-4.8,1.2-10.2,2.1-17.1c5.3,15.7,9.9,29,14.9,43.7c0.4-3.6,0.6-5.9,1-10.3c6.2,9.3,11.1,16.7,16,24.1
			C414.2,438,413.2,438.7,412.2,439.4z"/>
		<path id="XMLID_124_" class="st0" d="M374.3,239c-13.4,17.9,0.9,34.7,0.8,51.7c0,5,1.1,10.3,0,15.1c-0.9,3.9-4.2,7.2-6.5,10.8
			c-1.1-0.5-2.3-1-3.4-1.5c-0.2-2.9-0.7-5.7-0.7-8.6c0-18.9,0-37.7,0.4-56.6C365.1,244.8,365.1,238.1,374.3,239z"/>
		<path id="XMLID_123_" class="st0" d="M75.8,438c1.7-3.7,3.4-7.4,5.2-11.1c-0.6-0.3-1.2-0.7-1.7-1c-2.9,4.5-5.8,9-8.8,13.5
			c-0.9-0.6-1.8-1.2-2.7-1.7c4.9-7.6,9.7-15.2,15.7-24.4c0.8,3.9,1.2,5.9,1.8,8.6c4.7-13.5,9.2-26.5,14.5-41.4
			c0.7,6.4,1.3,11.7,1.9,16.6c1.2-0.6,3.9-1.9,6.6-3.2c0.1,0.2,0.1,0.4,0.2,0.5c-6.1,4.4-12.2,8.9-18.7,13.6c9.6,3,14,4.4,18.5,5.8
			c-0.4,1.2-0.9,2.3-1.3,3.5c-2-1.1-3.9-2.2-5.4-3c-7.7,8.5-15.4,17-23.1,25.5C77.5,439.2,76.7,438.6,75.8,438z"/>
		<path id="XMLID_122_" class="st0" d="M396.4,168.5c3.1,2.4,5.2,4,7.5,5.8c-2.8,3.4-5.3,6.4-8.1,9.7c-11.4-4.2,1-15.2-8.3-21.4
			c4.2,1.1,5.7,1.4,7.1,1.8c0.2-0.6,0.5-1.2,0.7-1.8c-4.7-1.9-9.4-3.8-16.2-6.4c4.2-2.6,7-4.4,10-6.3c3.6,4.4,6.7,8.3,10.2,12.7
			c2.6-1.8,4.9-3.4,7.2-5c10.4,13.1,11.2,17,5.6,25.8c1.4,0.5,2.9,1,4.4,1.5c-0.1,0.6-0.2,1.1-0.3,1.7c-3.5,0-7,0-10.9,0
			c0-6.1,0-12.5,0-19.5C402,167.6,399.7,167.9,396.4,168.5z"/>
		<path id="XMLID_121_" class="st0" d="M113.3,316.4c-2-3.2-5.6-6.4-5.7-9.7c-0.2-9.6,0-19.4,2-28.8c2.5-11.7,7.9-23-0.1-34.6
			c-0.7-1,0.7-3.4,1.1-5.1c1.6,0.7,3.8,1,4.8,2.2c1.1,1.5,1.7,3.8,1.7,5.7c0.1,22.9,0.1,45.7,0.1,68.6
			C115.9,315.3,114.6,315.9,113.3,316.4z"/>
		<path id="XMLID_120_" class="st0" d="M402.6,370c-2,10.7-3.8,20.6-5.6,30.6c-1.2,0-2.5,0-3.7,0.1c-1.4-6.2-1.5-13.2-4.6-18.4
			c-3-5-8.9-8.4-13.9-12c-2-1.4-5.1-1.4-8-2.2c5.1-9.6,13-6.4,20.7-6.9c-0.8,2.5-1.5,4.8-1.8,5.8C391.1,367.9,396.3,368.9,402.6,370
			z"/>
		<path id="XMLID_119_" class="st0" d="M423.5,387.6c3.3,2.8,6.5,5.6,9.8,8.4c0.1-0.5,0.3-0.9,0.4-1.4c4.5,1.7,10.1,2.2,13.1,5.4
			c2.7,2.8,2.5,8.4,1.3,13.1c-3.2-3.5-6.3-7-9.5-10.5c-1.4,8.4,1.9,17.9-9,20c-4.4,0.8-9.6-2.3-14.1-4.9
			c12.5-5.1,15.2-11.1,10.3-23.5c-0.8-2.1-1.4-4.4-2.2-6.6C423.6,387.6,423.5,387.6,423.5,387.6z"/>
		<path id="XMLID_118_" class="st0" d="M141.1,471.3c-11.5,2.2-8.8-9.4-15.8-11.9c2.4,5.6,4.4,10.4,6.7,15.7
			c-10.6-5.7-20.6-10.8-30.2-16.4c-1.4-0.8-1.4-4.1-2-6.3c0.8-0.3,1.6-0.7,2.4-1c1.7,2.4,3.4,4.8,5.6,7.8
			c0.5-11.8,0.7-12.1,9.9-11.8c-0.4,3.8-0.7,7.5-1.1,11.2c1.1,0.3,2.3,0.7,3.4,1c1.2-5,2.4-9.9,3.7-14.9c0.9-0.1,1.8-0.3,2.7-0.4
			C131.1,453.1,135.8,461.6,141.1,471.3z"/>
		<path id="XMLID_117_" class="st0" d="M57.3,387.7c-0.3,2.7-0.2,5.5-1,8c-4,12.2-1.2,17.6,10.9,20.1c-2.7,7.1-8,9.1-14.6,6.9
			c-9.7-3.2-7.7-11.1-6-18.6c-0.8-0.5-1.6-1.1-2.4-1.6c-3.6,3.2-7.2,6.5-12.1,10.8c1.4-5,1.4-10.6,4.3-13.9
			c2.5-2.9,8.1-3.2,13.2-2.6c2.6-3.1,5.2-6.1,7.8-9.2C57.6,387.6,57.3,387.7,57.3,387.7z"/>
		<path id="XMLID_116_" class="st0" d="M403,602.8c-11.1,4.7-22.3,9.4-34.5,14.6c0.6-3.3,1.1-5.9,1.7-9c-4,0.6-7.6,1-11.1,1.5
			c-0.4-1-0.8-2-1.2-3c7-3.2,13.7-7.9,21-9.3c7.4-1.4,15.4,0.4,23.1,0.8C402.3,599.8,402.6,601.3,403,602.8z"/>
		<path id="XMLID_115_" class="st0" d="M420.8,484.5c0.8,13,1.6,25.1,2.4,38.8c-3.5-4-6.6-7.4-9.8-11c-2.4,4.7-4.7,9.2-7,13.6
			c-1-0.3-1.9-0.6-2.9-1c0.6-3.7,1.3-7.5,1.8-11.2c0.7-5.4,1.1-10.8,1.8-16.2C408.4,488,415.6,485.9,420.8,484.5z"/>
		<path id="XMLID_114_" class="st0" d="M340.8,470.6c5.7-9.4,10.6-17.4,17.2-28.4c2,7.8,3.4,12.8,4.7,17.8c1.2-0.2,2.3-0.4,3.5-0.7
			c-0.3-3.6-0.6-7.2-1.1-12.8c3.3,1.1,7.7,1.4,8.1,2.9c1,3.4,1.3,9.6-0.5,10.6C363.6,465.2,355.9,475.1,340.8,470.6z"/>
		<path id="XMLID_113_" class="st0" d="M69.4,512.2c-3.1,3.5-6.3,7-11,12.2c1.4-14.9,7.6-27,0.7-39c11.8,0.2,15.3,4.6,15.6,16.4
			c0.2,7.4,3,14.8,4.6,22.2c-0.9,0.4-1.9,0.8-2.8,1.3C74.2,521,71.8,516.6,69.4,512.2z"/>
		<path id="XMLID_112_" class="st0" d="M372.9,173.1c-1.7,2.1-3.3,4.3-6.1,7.8c-2.4-2.6-4.6-5.1-6.7-7.5c2.1-1.7,4.2-3.5,6.4-5
			c1.6-1.1,3.8-1.6,5.2-2.9c5.1-4.5,10.9-5.6,14.4,0.5c3.5,6,1.4,11.6-7.4,12.5c1.8,2.6,3,4.3,4.9,7.1c-4.8-0.3-8.3-0.5-12.9-0.7
			c1.5-4.2,2.6-7.5,3.8-10.8C374,173.7,373.4,173.4,372.9,173.1z"/>
		<path id="XMLID_111_" class="st0" d="M44.9,494.5c-4.4-8.1-9.7-14-7.7-24.1c2.3-11.9,1.1-12.1,8.8-14.1
			c-1.3,6.3-2.5,12.4-3.8,18.6c0.9,0.2,1.7,0.4,2.6,0.7c1.5-4.3,3-8.7,5.3-15.2c1.8,8.2,3.1,14.2,4.7,21.9c-2.8-1.8-4.1-2.7-5.9-3.9
			C47.7,483.2,46.4,488.3,44.9,494.5z"/>
		<path id="XMLID_110_" class="st0" d="M437.2,158.5c-2.6,1.2-5.2,2.4-6,2.8c1.3,6.7,2.6,12.9,3.8,19c-3.8,0.2-7.9,1.4-11.2,0.2
			c-2.4-0.8-3.7-4.8-5.4-7.4c2.5-0.8,5.1-1.5,8.7-2.7c-7.2-4.5-20.2-8.7-4.2-17.6c4.5,1.8,9.4,3.7,14.4,5.7
			C437.3,158.7,437.2,158.5,437.2,158.5z"/>
		<path id="XMLID_109_" class="st0" d="M52,161.8c-0.6-0.8-2-2.8-3.5-4.8c2-0.3,4-0.2,5.8-0.9c2-0.8,3.7-2.2,5.7-3.5
			c10.6,9.5,10.6,9.5-5,18.2c3.9,0.5,6.3,0.8,8.8,1.1c0.6,0.8,1.3,1.5,1.9,2.3c-3.3,2.7-6.3,6.2-10.1,7.7c-2.2,0.8-8.4-2.2-8.3-2.7
			C48.4,173.3,50.3,167.7,52,161.8z"/>
		<path id="XMLID_108_" class="st0" d="M126.1,173.7c-3.7,3-6.3,5.2-9.4,7.8c-3.1-3.8-4.9-6.1-6.8-8.3c-0.6,0.3-1.1,0.6-1.7,0.9
			c1.2,3.1,2.5,6.1,4.3,10.6c-4.6,0.3-8.4,0.5-12.2,0.8c0.7-0.9,1.5-1.7,2.2-2.6c-1.4-2-3.4-3.9-4.1-6.1c-1.1-3.5-2.7-8-1.4-10.8
			c1-2.2,6.7-4.4,9.2-3.5C112.2,164.8,117.6,168.8,126.1,173.7z"/>
		<path id="XMLID_107_" class="st0" d="M437.1,493.3c-0.3-1.8-0.9-3.6-0.8-5.3c0.3-5.5,0-5.7-5.5-7c-1-0.2-2-3.6-1.7-5.3
			c0.8-4.2,2.3-8.2,4-14.1c1.8,5.4,3.2,9.6,4.5,13.9c1-0.2,2.1-0.4,3.1-0.6c-1.4-6.1-2.8-12.1-4.9-21.5c6.3,5,10.7,8.4,14.1,11.1
			c-3.9,11.2-7.1,20.3-10.2,29.4C438.9,493.7,438,493.5,437.1,493.3z"/>
		<path id="XMLID_106_" class="st0" d="M423.9,339.4c1.7,5.3,3.4,10.6,5.1,15.9c0.9,2.6,1.7,5.2,3.5,10.6c-6.1,1-11.7,2-18.9,3.2
			c1.1-4.7,1.7-7.3,2.2-9.7c-3.7,2.8-7,5.3-10.4,7.9c-0.7-0.8-1.3-1.5-2-2.3c2.6-4.8,5.1-9.7,8.3-15.7c4.2,4.8,8.6,9.8,14.7,16.8
			c-0.9-7.1-1.6-12.1-2.2-17.2c-0.9,0.2-1.8,0.3-2.7,0.5c0.9-3.4,1.8-6.8,2.7-10.2C424.2,339.1,423.9,339.4,423.9,339.4z"/>
		<path id="XMLID_105_" class="st0" d="M76.7,367.2c-3.1-2.7-6.2-5.5-10-8.9c0.7,3,1.3,5.4,2,8.4c-3.8,0.9-7.7,2.7-11.2,2.3
			c-2.3-0.3-5.9-4.1-5.8-6.1c0.5-7.5,2.4-14.8,4.2-24.7c3.1,5.1,4.7,7.8,6.6,11c-2.2,0.1-3.7,0.2-4.5,0.3c-0.3,5.1-0.6,9.8-0.9,16
			c5.3-6.3,9.7-11.5,14.2-16.9c2.9,6.2,5.4,11.4,7.8,16.5C78.3,365.8,77.5,366.5,76.7,367.2z"/>
		<path id="XMLID_104_" class="st0" d="M145.2,173.1c4.5-5.2,9.1-10.6,14.2-16.4c3.8,2.1,7.8,4.3,11.2,6.2c-2.6,3.1-5.6,5.8-7.5,9
			C155.4,185.2,155.5,185.3,145.2,173.1z"/>
		<path id="XMLID_103_" class="st0" d="M338.7,173.9c-5.9,1.9-7.5,14.1-15.2,4.6c-3.5-4.4-11.7-11.7-4.9-16.4
			C329.5,154.7,331.8,168.2,338.7,173.9z"/>
		<path id="XMLID_102_" class="st0" d="M62.8,188.7c6.9,6.4,13.8,12.7,20.7,19.1c-0.4,0.8-0.8,1.5-1.2,2.3c-3.4,0-6.9,0-10.3,0
			c0.4,0.7,0.8,1.5,1.2,2.2c-3.8,2.3-7.6,4.6-11.4,6.9c-0.9-1.1-1.8-2.3-2.6-3.4c3.1-4.1,8.6-8.3,8.6-12.4c0-4.1-5.5-8.2-8.6-12.3
			C60.4,190.3,61.6,189.5,62.8,188.7z"/>
		<path id="XMLID_101_" class="st0" d="M424.3,217.8c-5.7,0.1-12.9,2.6-12.3-7.6c-4.2,0-7.6,0-11.1,0c-0.5-0.8-1-1.7-1.5-2.5
			c7.2-6.3,14.3-12.6,22.1-19.5c1.4,3.1,2,4.1,1.8,4.2c-7.2,6.8-13.1,13.6-0.5,21c1,0.6,0.8,3.1,1.1,4.7
			C423.9,218.2,424.3,217.8,424.3,217.8z"/>
		<path id="XMLID_100_" class="st0" d="M62.4,281c-5.6,9.6-11.3,19.2-17.1,29.2c-0.2-0.1-2.4-1.7-4.2-3c1.8-7.1,3.4-13.5,5.2-20.5
			c1.7,0.7,3.3,1.4,3.2,1.4c4.3-6,8.4-11.7,12.5-17.3c0.9,0.5,1.8,1,2.6,1.4c-0.9,3-1.7,6.1-2.6,9.1C62,281.4,62.4,281,62.4,281z"/>
		<path id="XMLID_99_" class="st0" d="M357.7,179.1c-6.3-0.7-10.8-1.2-15.9-1.8c6.4-7.2,11.6-13.5,17.3-19.1
			c4.4-4.3,9.8-5.3,18.6,0.4c-9.2,4.4-16.1,7.8-23.7,11.4C354.8,171.7,356.1,174.9,357.7,179.1z"/>
		<path id="XMLID_98_" class="st0" d="M142,159.2c-5.4,0-9,0.9-11.9-0.3c-2.5-1-4.1-4.4-5.3-5.7c6.7-1.5,12.1-4,17.2-3.6
			c4.4,0.4,8.5,4.2,11.8,6c-4.6,5.8-7.1,9.7-10.2,12.9c-1.3,1.3-3.9,1.3-5.9,2c-0.3-1.8-1.3-3.7-0.9-5.3
			C137.2,163.6,139.1,162.4,142,159.2z"/>
		<path id="XMLID_97_" class="st0" d="M124.8,179.1c1.8-4,3-6.8,4.1-9.4c-6.9-3.1-14.2-6.3-22.4-10c11-9.2,18.3-4.7,33.4,17.9
			C135.6,178,131.5,178.4,124.8,179.1z"/>
		<path id="XMLID_96_" class="st0" d="M432.3,312.2c0.1-2.3,0.3-4.7,0.4-7c0.7-9.8-7.2-16-10.3-24.2c-1-2.8-2.9-5.2-4.4-7.8
			c1-0.7,2.1-1.3,3.1-2c3.8,5.2,7.6,10.5,12.2,16.9c-0.6,0.2,1.3-0.4,3.3-1.1c1.7,6.8,3.4,13.1,5.3,20.8
			C439.1,309.1,435.7,310.7,432.3,312.2z"/>
		<path id="XMLID_95_" class="st0" d="M357,151c0.7,6.6-1.2,8.5-8,7.6c-1.7-0.2-3.4,0.4-5.1,0.6c0.5,1.5,1,3,1.4,4.6
			c0.4,1.8,1.2,3.8,0.8,5.5c-0.2,0.8-3.1,1.9-4,1.4c-1.4-0.8-2.1-2.9-3.3-4.2c-2.7-2.8-5.6-5.5-8.9-8.8c3.7-5,7.7-9,15.9-5.5
			C348.5,153.4,352.7,151.6,357,151z"/>
		<path id="XMLID_94_" class="st0" d="M365.4,224.5c-0.8-7.5-1.4-13.4-2.1-20.8c2.7,0.8,7.2,1.1,7.5,2.3c1.8,8.6,10,6.3,18.3,11.3
			C379.6,220.2,372.8,222.2,365.4,224.5z"/>
		<path id="XMLID_93_" class="st0" d="M145.8,200.4c-1.9-2.9-2.7-4.2-4.2-6.3c12.2-2.2,13.9,9.8,22.6,13.2
			c-13.1,5.2-25.4,0.1-28.6-11.2C138.8,197.4,141.3,198.5,145.8,200.4z"/>
		<path id="XMLID_92_" class="st0" d="M110.5,213.5c-2-5.7,0.3-9.8,9.2-9.4c-1.2,6.6-2.3,12.9-3.6,20.1c-6.8-2-13.2-3.9-19.6-5.8
			c0.1-1.3,0.3-2.5,0.4-3.8C101.2,214.3,105.5,213.9,110.5,213.5z"/>
		<path id="XMLID_91_" class="st0" d="M317.8,208.2c7.9-6.1,14-10.8,20.1-15.6c0.7,0.7,1.4,1.4,2.1,2.2c-0.6,1.4-1.2,2.7-2.3,5.2
			c3.5-1.5,6.2-2.6,9.5-3.9C344,207,333.8,211.6,317.8,208.2z"/>
		<path id="XMLID_90_" class="st0" d="M93.6,200.8c-2.1,2.5-3.4,4.1-5.6,6.7c-4.6-5.4-8.8-10.2-13.4-15.7c14.8-2.6,25,4.1,26.7,19.3
			C97.9,206.6,95.9,204,93.6,200.8z"/>
		<path id="XMLID_89_" class="st0" d="M411.7,272.9c-2.6-1.4-5.2-2.7-8.6-4.5c-1.1,1.3-3.3,4-6.1,7.3c-1.2-2-2.6-3.8-2.3-4
			c5.7-6.1,11.5-11.9,17.4-17.9c1.4,1.8,4.3,3.8,4,5.3c-1,4.8-3,9.5-4.7,14.2C411.4,273.3,411.7,272.9,411.7,272.9z"/>
		<path id="XMLID_88_" class="st0" d="M408.4,192c-5,5.8-8.9,10.2-14.2,16.3c-1.6-2.7-2.8-4.6-4.1-6.8c-2.6,2.8-5,5.4-7.9,8.4
			C381.7,197.3,391.2,190.7,408.4,192z"/>
		<path id="XMLID_87_" class="st0" d="M84.5,274.7c-1.9-2.6-3.8-5.2-6.4-8.6c-0.9,2.8-1.6,4.6-2.2,6.5c-0.9,0.3-1.8,0.6-2.7,1
			c-2.4-5.4-4.9-10.7-7.3-16.1c2.2-0.9,5.6-3.2,6.5-2.4c5.3,4.2,10.3,8.9,14.9,13.9c0.9,1,0.1,3.7,0.1,5.6
			C86.5,274.5,85.5,274.6,84.5,274.7z"/>
		<path id="XMLID_86_" class="st0" d="M183.8,204.4c-4.2-0.2-7.2,0.3-9.4-0.8c-1.3-0.7-1.4-3.9-2-5.9c2.7-0.7,5.4-1.9,8.2-2
			c3.7-0.3,7.6-0.1,11.3,0.6c1.6,0.3,4.3,3,4,3.4c-1.4,2.9-3,5.9-5.4,7.9c-1,0.9-4.1,0-5.8-0.9C183.7,206.1,183.6,203.9,183.8,204.4
			z"/>
		<path id="XMLID_85_" class="st0" d="M299.5,203.7c-1,1.2-3.6,4.8-4,4.6c-3.4-2-6.5-4.7-9.7-7.2c0.3-0.9,0.5-1.9,0.8-2.8
			c7.1-0.8,14.1-1.7,21.2-2.2c1-0.1,3.1,2.2,2.9,3.1c-0.2,1.7-1.4,4.3-2.7,4.7C305.8,204.7,303.1,204,299.5,203.7z"/>
		<path id="XMLID_84_" class="st0" d="M426.6,210.3c-2.8-2-5.7-4.1-10.4-7.4c5.5-2.8,9.7-5,14.6-7.5c-0.1-0.2-1.5-2.4-3.5-5.6
			c2.4,0.3,4.9,0,5.5,0.9c1.6,2.5,4.1,6.4,3.2,8.2C434,203.2,430,206.4,426.6,210.3z"/>
		<path id="XMLID_83_" class="st0" d="M57.7,192.3c-2.9,1-5.7,2-7.8,2.8c6,2.7,10.6,4.7,16.8,7.4c-4.8,3.6-7.6,5.7-11.3,8.4
			c-3.5-5.7-7-11-9.6-16.7c-0.2-0.5,5.6-3.8,8.6-5.8C55.6,189.8,56.7,191.1,57.7,192.3z"/>
		<path id="XMLID_82_" class="st0" d="M161.4,138.3c7.8-3.2,15.7,2,20.6,14.2c-6.9-2.2-13.5-4.2-17.7-5.5
			C163,143.2,162.2,140.7,161.4,138.3z"/>
		<path id="XMLID_81_" class="st0" d="M297,173.2c6.2,1.6,10.3-11.6,16.6-2c1.3,1.9,0.4,7.8-1.3,8.7
			C305.6,183.5,300.3,180.6,297,173.2z"/>
		<path id="XMLID_80_" class="st0" d="M386.1,586.8c6.8-0.4,12-1.2,17.2-0.9c1.7,0.1,3.3,2.6,5,4c-1.5,1.6-2.7,4.3-4.4,4.7
			C397.4,596.1,390.6,597.3,386.1,586.8z"/>
		<path id="XMLID_79_" class="st0" d="M186.6,174c-4,5.7-9.2,11.1-15.3,6.2c-6.6-5.2-4.7-11.5,4.4-12.3
			C178.7,167.7,182.1,171.4,186.6,174z"/>
		<path id="XMLID_78_" class="st0" d="M284.8,514.6c6.3-3.3,12.5-7,19.1-9.7c1.2-0.5,3.9,2.7,5.9,4.2c-1.4,1.7-2.5,4.5-4.2,4.9
			c-6.1,1.5-12.5,2.2-18.7,3.2C286.2,516.3,285.5,515.5,284.8,514.6z"/>
		<path id="XMLID_77_" class="st0" d="M198.6,207.8c2.4-3.3,4.8-6.7,7.8-10.9c3.1,0.4,7.4,1,11.9,1.5
			C209.1,211.1,207.4,211.9,198.6,207.8z"/>
		<path id="XMLID_76_" class="st0" d="M194.5,519.3c-2.5-2.2-5-4.3-7.8-6.8c-1.2,0.5-2.9,1.9-4.2,1.7c-3-0.6-6-1.9-8.7-3.3
			c-0.4-0.2,0.3-4.1,0.8-4.1c2.8-0.4,6.3-1.1,8.3,0.2C187.5,510.1,196.2,508.5,194.5,519.3z"/>
		<path id="XMLID_75_" class="st0" d="M390,220.6c1.6-3,3.2-6,6.1-11.6c3.2,9.2,5.7,16.3,8.2,23.5c-1,0.5-2,1-3,1.5
			C397.6,229.5,393.7,225,390,220.6z"/>
		<path id="XMLID_74_" class="st0" d="M77.3,346.1c4.9-4.5,9.7-8.7,15-13.5c0.3,3,1.6,6.5,0.5,9c-0.9,2.2-4.3,3.9-6.9,4.9
			C84.1,347.2,81.7,346.4,77.3,346.1z"/>
		<path id="XMLID_73_" class="st0" d="M285,207.9c-8.3,3-8.3,3-20.6-7.8c4.6-0.9,8.6-1.7,12-2.4C279.4,201.3,281.9,204.3,285,207.9z
			"/>
		<path id="XMLID_72_" class="st0" d="M386.6,349.6c3.9,0.2,7.8,0.4,14.1,0.7c-0.9,4.6-1.8,8.8-2.6,13.1c-4.4-3.7-8.8-7.4-13.3-11.2
			C385.4,351.3,386,350.5,386.6,349.6z"/>
		<path id="XMLID_71_" class="st0" d="M81.3,350.6c6.7-0.5,10.6-0.8,14.6-1.1c0.7,0.8,1.3,1.6,2,2.4c-4.1,3.9-8.3,7.7-12.4,11.6
			C84.1,359.5,82.9,355.6,81.3,350.6z"/>
		<path id="XMLID_70_" class="st0" d="M78.7,232.1c1.8-6.2,3.6-12.5,5.6-18.6c0.3-0.9,2.3-2,3.1-1.7c1,0.4,1.7,1.9,2.4,3
			c1.1,1.8,2,3.7,3.2,5.9c-3.9,4.5-7.8,9-11.7,13.5C80.4,233.4,79.5,232.8,78.7,232.1z"/>
		<path id="XMLID_69_" class="st0" d="M405.7,345.8c-6.5,0-11.1,0-16.4,0c0.4-4.8,0.7-8.9,1-13.1c0.8-0.4,1.5-0.9,2.3-1.3
			C396.9,336.2,401.2,340.9,405.7,345.8z"/>
		<path id="XMLID_68_" class="st0" d="M92.8,591.2c-6.4,0.8-12.8,1.6-19.2,2.5c-0.2-1.3-0.4-2.6-0.5-3.8c5.1-7.7,12.3-3.1,18.7-3.4
			C92.2,588,92.5,589.6,92.8,591.2z"/>
		<path id="XMLID_67_" class="st0" d="M57.5,262c2.6,0.8,5.1,1.7,7.7,2.5c-0.1,0.8-0.2,1.7-0.3,2.5c-8,2.5-16.1,4.9-24.1,7.4
			c-0.5-0.7-0.9-1.5-1.4-2.2c6.1-3.4,12.2-6.9,18.3-10.3C57.8,261.9,57.5,262,57.5,262z"/>
		<path id="XMLID_66_" class="st0" d="M361.9,198.8c-3.2,4.1-5.3,6.9-8.2,10.7c-0.5-0.3-2.7-1.4-4.8-2.5c1.9-4.7,3.5-8.8,5.5-13.8
			C357.2,195.4,359.7,197.2,361.9,198.8z"/>
		<path id="XMLID_65_" class="st0" d="M146.2,558.2c5-2,10-4,18.1-7.2c-2.1,4.3-2.8,8.7-5.2,10c-3.3,1.8-7.9,1.2-11.9,1.6
			C146.8,561.1,146.5,559.6,146.2,558.2z"/>
		<path id="XMLID_64_" class="st0" d="M335.1,561.6c-3.9,0-8.4,1.2-11.6-0.4c-2.6-1.2-3.6-5.7-6.5-10.6c8.3,3.2,13.4,5.3,18.5,7.3
			C335.4,559.2,335.3,560.4,335.1,561.6z"/>
		<path id="XMLID_63_" class="st0" d="M84.1,160.5c-0.9,0-1.8-0.1-2.7-0.1c-0.9-3.9-1.7-7.7-2.6-11.6c0,0-0.4,0.4-0.4,0.4
			c3.3-1.6,6.6-3.2,9.9-4.8c0.7,0.6,1.3,1.2,2,1.8C88.3,150.9,86.2,155.7,84.1,160.5z"/>
		<path id="XMLID_62_" class="st0" d="M381.2,520.8c-0.5-7-1.3-11.6-0.8-16.2c0.1-1.1,4.3-1.8,6.6-2.7c0.5,1.9,1.9,4.2,1.3,5.7
			C386.8,511.5,384.4,515,381.2,520.8z"/>
		<path id="XMLID_61_" class="st0" d="M405.1,401.9c2.5,6.5,4.9,12.6,7.3,18.6c-0.5,0.4-1,0.7-1.4,1.1c-4.3-4.9-8.6-9.8-13-14.9
			C400.5,405,402.7,403.5,405.1,401.9z"/>
		<path id="XMLID_60_" class="st0" d="M77.5,401.8c2.6,1.7,4.8,3.2,7.4,5c-4.4,5.1-8.7,9.9-12.9,14.8c-0.4-0.3-0.8-0.7-1.3-1
			C72.9,414.5,75.1,408.4,77.5,401.8z"/>
		<path id="XMLID_59_" class="st0" d="M120.8,199.2c2.2-1.9,4.9-4.1,7.5-6.4c-2.3,6,11.7,12.3,1.5,17.1
			C126.4,205.9,123.9,202.9,120.8,199.2z"/>
		<path id="XMLID_58_" class="st0" d="M395.3,143.9c3,2.5,6.6,4.5,8.7,7.6c0.9,1.3-1.6,4.8-3.6,9.9c-3.7-6.4-6-10.4-8.3-14.4
			C393.2,145.9,394.2,144.9,395.3,143.9z"/>
		<path id="XMLID_57_" class="st0" d="M381.2,228.2c-4.8,2.4-9.7,4.9-15.8,8c0-3.4-0.6-7,0.1-7.2c4.8-1.9,9.8-3.1,14.7-4.5
			C380.6,225.7,380.9,227,381.2,228.2z"/>
		<path id="XMLID_56_" class="st0" d="M303.9,144.8c3.2-2.1,6.4-4.4,9.8-6.2c2.3-1.2,5-1.5,7.6-2.3c0.4,0.8,0.7,1.7,1.1,2.5
			c-1.6,1.8-3.3,3.6-5.2,5.7c2.1,0.3,3.8,0.5,7.2,0.9c-2.2,1.7-3.3,3.2-4.6,3.4c-2.7,0.4-5.5,0.1-8.4-2c-2.8,2.2-5.6,4.5-8.3,6.7
			c-0.5-0.4-1.1-0.9-1.6-1.3c0.9-2.6,1.8-5.1,2.7-7.7C304.2,144.5,303.9,144.8,303.9,144.8z"/>
		<path id="XMLID_55_" d="M167.5,442c0.3,3.5,0.6,6.7,1,10.8c-3,0.4-5.7,0.7-9.2,1.1c0-4.3,0-7.7,0-11.9
			C161.8,442,164.5,442,167.5,442z"/>
		<path id="XMLID_54_" d="M285.8,336.5c11.6-14.8,22.4-28.8,33.8-43.3c1.1,2.3,2.9,5.3,4.2,8.4c3.8,8.6,9.3,15.1,18,19.6
			c5.3,2.8,9.2,8.4,13.7,12.7c-0.6,0.9-1.3,1.8-1.9,2.6C331.6,336.5,309.5,336.5,285.8,336.5z"/>
		<path id="XMLID_53_" d="M309.4,293.7c0.6-11.1,9.1-22,0.4-32.7c-2.7-3.3-7.5-6.1-11.8-6.7c-16.2-2.6-22.3,1.8-24.6,15.8
			c0.7-7,0.6-14.2,2.3-20.9c3.6-13.6,17.8-20.9,31.2-16.8c11.9,3.6,21.4,21.7,16.6,33.3C319.6,275.4,314.2,284.4,309.4,293.7z"/>
		<path id="XMLID_52_" d="M273.4,336.8c-8.7,0-16.7,0-22.4,0c11-10.2,22.9-21.4,32.8-30.7C281.4,313.4,277.4,325.1,273.4,336.8z"/>
		<path id="XMLID_48_" d="M270.3,443.7c-5.3,3.1-10.4,6.4-15.8,9.1c-1.5,0.7-4.1-0.5-6.1-0.9c0.8-1.9,1.2-5.1,2.5-5.5
			c18.9-6.2,21.3-20.8,21.5-38c0.1-8.3,4-17.2,8.2-24.6c6.7-12.1,18.3-12.2,25.4-0.3c4.2,7,6.5,15.3,9.9,23.6
			c7.4-4.4,14.8-9.1,22.5-13.1c2-1,5.1,0.1,7.7,0.3c-1.2,2-2.1,5.3-3.8,5.9c-21.8,7.5-28.9,23.4-28.5,45.4c0.1,7.8-4,16.4-8.2,23.5
			c-6.8,11.4-18.1,11.2-24.9-0.3C276.3,461.4,273.9,452.8,270.3,443.7z M307.9,421c-9.7,5.8-18,10.6-26,15.9
			c-1.4,0.9-2.5,4.2-2.1,5.9c1.9,7.1,3.6,14.5,6.8,20.9c3.9,7.7,9,7.6,13.3-0.1C307.1,451.1,308.4,437.2,307.9,421z M276.4,426.8
			c1.2,0.6,2.4,1.2,3.6,1.7c4.5-2.7,9.1-5.3,13.6-8c15.3-9.2,15.9-11.1,8.5-27.8c-0.5-1.2-1.1-2.4-1.8-3.6c-5-8.4-10.8-8.8-14.2,0.3
			C281.7,401.5,279.6,414.3,276.4,426.8z"/>
		<path id="XMLID_41_" d="M220.7,237.7c0,28,0.3,54.7-0.2,81.2c-0.1,8.9-5.8,13.7-14.8,15.1c-8.2,1.2-16.3,3.5-24.5,5.2
			c-1.9,0.4-3.9,0.6-5.8,0.2c-8.5-1.7-16.9-4-25.5-5.4c-8.1-1.3-13.9-5.6-14-13.5c-0.6-27.2-0.2-54.4-0.2-82.8
			c13.5,5.9,26.6,6.4,39.8,0.7c1.6-0.7,4.1-0.6,5.8,0.2C194.1,244.1,206.9,243.3,220.7,237.7z M204.9,256.3c-18.4,0-35.7,0-53.5,0
			c0,19.2-0.2,36.6,0.2,54.1c0.1,2.5,2.3,6.5,4.5,7.2c14.6,5,29.6,5.1,44.2,0c2.1-0.7,4.4-4.7,4.4-7.2
			C205.1,292.9,204.9,275.4,204.9,256.3z M142.6,288.9c-1.2-2.1-2.1-3.8-3-5.4c-0.7,0.3-1.4,0.6-2.1,0.9c1.7,5.8,3.4,11.6,5,17.4
			c0.5-0.3,1-0.6,1.5-0.9c1-5.6,2.1-11.2,3.1-16.9c-0.4-0.2-0.8-0.4-1.2-0.6C144.9,285,143.9,286.7,142.6,288.9z M214,289
			c-1.9-2.5-2.9-3.9-5.1-6.8c1.5,8,2.5,13.8,3.6,19.5c0.5,0.1,1,0.3,1.6,0.4c1.6-6,3.1-12.1,4.7-18.1c-0.8-0.2-1.5-0.5-2.3-0.7
			C215.8,285,215.1,286.6,214,289z M142.1,269.4c0.5-0.3,1-0.7,1.5-1c1.1-5.7,2.3-11.4,3.4-17.1c-0.4-0.2-0.8-0.4-1.3-0.6
			c-1.1,1.6-2.1,3.1-3.3,4.9c-1.4-1.9-2.5-3.3-3.6-4.8c-0.6,0.3-1.1,0.6-1.7,0.9C138.8,257.7,140.4,263.5,142.1,269.4z M214.2,255.8
			c-1.7-2.1-2.8-3.4-5.3-6.6c1.7,8.2,2.8,14,4.6,22.7c2.3-8.4,4-14.4,5.6-20.3c-0.6-0.2-1.3-0.5-1.9-0.7
			C216.4,252.2,215.5,253.6,214.2,255.8z"/>
		<path id="XMLID_40_" d="M265.2,537.1c6.5-3.1,11-3.2,12.6,4.6c1.5,7.2,1.5,13.1-9.7,12.6C267.2,548.7,266.2,542.9,265.2,537.1z"/>
		<path id="XMLID_39_" d="M331.7,532.5c-1.8-1.7-3.5-3.4-7-6.6c0.7,4.7,1,7.2,1.4,9.7c-0.6,0.3-1.3,0.7-1.9,1
			c-2.8-4.9-5.6-9.9-8.3-14.7C324.6,513.7,325.9,514.4,331.7,532.5z"/>
		<path id="XMLID_38_" d="M172.7,542.4c0.2-2.4,0.4-4.8,0.5-7.2c-0.9-0.6-1.7-1.3-2.6-1.9c-1,2.6-2,5.3-3,7.9
			c-0.9-0.6-1.7-1.2-2.6-1.8c1.9-5.5,3.8-11.1,5.6-16.5C182.1,525.7,182.1,525.7,172.7,542.4z"/>
		<path id="XMLID_37_" d="M230.4,537c0.9,6,1.8,11.9,2.7,17.4c-4.1-0.5-7.4-1-11.9-1.5c1.7-4.7,3.7-10.5,5.8-16.4
			C228.2,536.7,229.3,536.9,230.4,537z"/>
		<path id="XMLID_36_" d="M293.1,544c2.2,0,4.4,0,7,0c-1.8-6.2-14.4-3.2-9.4-12.7c0.9-1.7,5.4-1.5,8.3-2.2c0.2,1.1,0.4,2.1,0.6,3.2
			c-2.1,0.2-4.2,0.4-6.5,0.6c1.1,6,18.2,3.4,6.9,14.1c-1.2,1.2-4.8-0.1-7.2-0.2C292.8,545.9,293,545,293.1,544z"/>
		<path id="XMLID_35_" d="M182.2,541.2c1.8,1.1,3.6,2.2,5.8,3.5c2.5-6-9.9-10.9-0.2-15.7c1.8-0.9,5.3,2,8,3.1
			c-0.5,0.9-1,1.9-1.5,2.8c-1.7-1.1-3.4-2.1-5.9-3.6c1.2,5.4,2.2,9.9,3.2,14.3c-3.6-0.1-7.2-0.2-10.7-0.3
			C181.3,544,181.7,542.6,182.2,541.2z"/>
		<path id="XMLID_34_" d="M248.7,542.4c-1.9-0.5-3.8-1-6.3-1.7c2.6,4.8,7.3,9.6,6.3,12.6c-2,6.1-6.7,4-9.8-1.5c2,0.6,4,1.1,6.5,1.8
			c1.7-6.4-13.3-7.9-4.2-15.2c1.5-1.2,5.4,0.6,8.2,1.1C249.2,540.5,248.9,541.4,248.7,542.4z"/>
		<path id="XMLID_33_" d="M158.9,516.9c2.4,0.9,4.5,1.7,6.6,2.6c-7.3,0.8-7,4.1-3.6,8.7c-6.7,0.7-7.2,3.4-2.6,7.8
			C150.2,534.1,150.2,534.1,158.9,516.9z"/>
		<path id="XMLID_32_" d="M139.3,528.3c1.4-6,2.8-11.9,4.2-17.9c0.8,0.1,1.5,0.3,2.3,0.4c-0.4,3.4-0.9,6.9-1.3,10.3
			c0.7,0.7,1.4,1.4,2.1,2c1.8-3.2,3.7-6.4,5.5-9.6c0.7,0.7,1.4,1.4,2.1,2c-3.9,4.7-7.8,9.5-11.7,14.2
			C141.4,529.4,140.4,528.9,139.3,528.3z"/>
		<path id="XMLID_31_" d="M119.2,562.5c0.9,2.7,1.9,5.5,2.9,8.3c1.1-2,2.2-3.8,3.3-5.6c0.6,0.3,1.2,0.5,1.9,0.8
			c-1.7,5.6-3.4,11.3-5,16.9c-1,0-2,0.1-2.9,0.1c-0.9-3.1-1.7-6.1-2.7-9.8c-1.2,2.4-2.3,4.5-3.4,6.6c-0.7-0.2-1.4-0.5-2.1-0.7
			c1.7-5.5,3.3-11.1,5-16.6C117,562.6,118.1,562.5,119.2,562.5z"/>
		<path id="XMLID_30_" d="M78.3,557.4c11.1-0.1,11.1-0.1,8.9,19.3c-1.7-3.7-2.8-5.9-4.4-9.4c-1.5,3.2-2.6,5.5-3.7,7.7
			c-0.7-0.2-1.4-0.3-2.1-0.5C77.4,569,77.8,563.5,78.3,557.4z"/>
		<path id="XMLID_29_" d="M105.5,576.6c-3.9-0.6-7.2-1.1-11.7-1.8c1.9-4.6,4.3-10.3,6.7-16.1c1.1,0.2,2.2,0.3,3.3,0.5
			C104.4,565.1,105,571.1,105.5,576.6z"/>
		<path id="XMLID_28_" d="M138.8,587.7c-2.9-1-5.8-2.1-8.8-3.1c2-5,4-10.1,6-15.1c2.8,1.1,5.7,2.3,8.5,3.4c-0.6,1-1.1,2.1-1.7,3.1
			c-1.6-1.2-3.1-2.4-5.4-4.2c-1.6,3.9-3.2,7.5-5.1,12.1c3.2,0.2,5.2,0.3,7.2,0.4C139.3,585.5,139.1,586.6,138.8,587.7z"/>
		<path id="XMLID_27_" d="M368.5,564.4c9.8-4.9,12.2,0,13.8,7.4c1.7,7.9-2.9,9.1-9.8,9.8C371.1,575.8,369.9,570.4,368.5,564.4z"/>
		<path id="XMLID_26_" d="M402.2,577.5c-5-1.5-9.1-8.4-11.2,4.4c-0.6-1.5-1.2-3-1.9-4.5c0.8-6,1.6-12.1,2.4-18.1
			c1.1-0.1,2.1-0.3,3.2-0.4C397,564.6,399.3,570.3,402.2,577.5z"/>
		<path id="XMLID_25_" d="M341.9,590.8c-0.9-5-1.9-11-3-16.9c1.1-0.6,2.1-1.2,3.2-1.7c3.7,4.8,7.5,9.6,11,14.1
			C349.3,587.8,346,589.2,341.9,590.8z"/>
		<path id="XMLID_24_" d="M411.9,561.5c1.5,4.7,3,9.2,4.5,13.8c-3.2,0-6.4,0-9.5,0c0.1-1.1,0.2-2.2,0.3-3.3c2.2,0.5,4.5,1,7,1.5
			c0.2-6.5-13.1-6.9-5.5-14.7c1.4-1.5,5.7-0.2,8.7-0.2c-0.1,1.1-0.2,2.3-0.2,3.4C414.8,561.8,412.6,561.6,411.9,561.5z"/>
		<path id="XMLID_23_" d="M252.2,577.1c-3.7,4.6-6,7.6-8.3,10.5c-2.1-3-5.9-6-6-9.1c-0.1-3.2,3.2-6.6,5-10
			C245.6,571,248.2,573.4,252.2,577.1z"/>
		<path id="XMLID_22_" d="M283.2,567c5,3.2,7.7,4.9,10.4,6.7c-1.8,2.6-3.7,5.1-5.5,7.7c-1.5,2.1-2.9,4.3-6.2,6.2
			C282.3,581.9,282.7,576.3,283.2,567z"/>
		<path id="XMLID_21_" d="M213.6,586.1c-4,0-7.1,0-11.6,0c1-4.8,2.1-10.8,3.3-16.7c1.1-0.1,2.2-0.1,3.3-0.2
			C210.3,575.1,212.1,580.9,213.6,586.1z"/>
		<path id="XMLID_20_" d="M302.7,579.9c-1.5,4.2-2.4,6.6-3.2,8.9c-0.4-0.1-0.9-0.1-1.3-0.2c0-5.5,0-11.1,0-16.6
			c0.6-0.2,1.2-0.3,1.7-0.5c1,2.2,2,4.5,3.5,7.9c1.6-3.1,2.7-5.4,3.9-7.7c0.6,0.1,1.2,0.2,1.8,0.3c-0.4,5.8-0.8,11.6-1.2,17.4
			c-0.6,0-1.3,0.1-1.9,0.1C305.1,586.9,304.2,584.3,302.7,579.9z"/>
		<path id="XMLID_19_" d="M254.3,582.4c1.9,0.9,3.8,1.8,6.1,2.9c2.7-6.9-12.9-8.2-4.2-15.5c1.6-1.3,5.8,0.4,8.7,0.7
			c-0.2,1-0.5,2-0.7,3.1c-2-0.7-4.1-1.3-6.5-2.1c-1.1,6.5,13.8,7.9,4.2,15.4c-1.5,1.2-5.8-1-8.7-1.7
			C253.6,584.3,253.9,583.3,254.3,582.4z"/>
		<path id="XMLID_18_" d="M188.4,575.9c-1.6-0.7-3.2-1.3-5.5-2.3c0,4.5,0,8.5,0,13.9c2.9-1.6,4.6-2.5,7.1-3.9c-0.2,1.8-0.1,4-0.4,4
			c-2.9,0.5-5.9,0.6-8.9,0.8c-0.1-5.4-0.2-10.8-0.3-16.2c3,0,6,0,9,0C189,573.4,188.7,574.6,188.4,575.9z"/>
		<path id="XMLID_17_" d="M376.1,492.7c-3.2,1.8-6.1,3.4-10.2,5.7c-1.5-3.9-3.7-9.6-6.8-17.5C368.6,482.6,371.5,489.2,376.1,492.7z"
			/>
		<path id="XMLID_16_" d="M405.9,462.9c-2.1,0.4-4.2,0.8-6.6,1.3c2.5,5.7,14.9,1.5,10.5,11.6c-0.8,1.9-5.6,2-8.6,3
			c-0.2-1.2-0.4-2.3-0.6-3.5c2.1,0,4.3,0,6.8,0c-0.8-7.2-15.2-2.3-10.1-12.7c0.9-1.8,5.3-1.8,8-2.6
			C405.5,460.9,405.7,461.9,405.9,462.9z"/>
		<path id="XMLID_15_" d="M94.2,481.9c-1.8,2.2-2.8,3.5-3.9,4.8c-0.6-0.3-1.1-0.6-1.7-0.9c2.7-5.2,5.4-10.5,8-15.7
			c1,0.1,1.9,0.2,2.9,0.3c0.2,3.6,0.3,7.3,0.5,11.4c1.9-2.5,3.7-4.9,5.6-7.4c0.5,0.3,1.1,0.6,1.6,0.9c-2.8,5.4-5.7,10.8-8.5,16.2
			c-0.8-0.1-1.6-0.1-2.4-0.2C95.7,488.4,95,485.6,94.2,481.9z"/>
		<path id="XMLID_14_" d="M78.7,461.1c-1.6,5.1-3.1,10.2-4.7,15.3c0.9,0.4,1.8,0.8,2.7,1.2c2.4-4.6,4.8-9.2,7.2-13.8
			c1,0.4,1.9,0.9,2.9,1.3c-2.8,4.9-5.5,10-8.8,14.5c-0.4,0.5-6.5-1.9-6.5-2.4c1-5.8,2.7-11.4,4.2-17.1
			C76.7,460.5,77.7,460.8,78.7,461.1z"/>
		<path id="XMLID_13_" d="M126.3,501.3c4.1-3.3,6.8-5.5,9.4-7.7c0.5,0.6,1,1.1,1.5,1.7c-4.4,4.2-8.8,8.4-13.2,12.6
			c-1.1-0.6-2.2-1.2-3.3-1.8c2.3-5.8,4.5-11.6,6.8-17.4c0.8,0.3,1.6,0.5,2.4,0.8C129,492.7,127.9,495.9,126.3,501.3z"/>
		<path id="XMLID_12_" class="st0" d="M307.9,421c0.4,16.2-0.9,30.1-8,42.7c-4.3,7.6-9.4,7.8-13.3,0.1c-3.3-6.5-5-13.8-6.8-20.9
			c-0.5-1.7,0.6-5,2.1-5.9C289.9,431.7,298.3,426.9,307.9,421z"/>
		<path id="XMLID_11_" class="st0" d="M276.4,426.8c3.2-12.5,5.3-25.3,9.8-37.3c3.4-9.1,9.2-8.7,14.2-0.3c0.7,1.1,1.3,2.4,1.8,3.6
			c7.4,16.6,6.9,18.6-8.5,27.8c-4.5,2.7-9.1,5.4-13.6,8C278.8,428,277.6,427.4,276.4,426.8z"/>
		<path id="XMLID_8_" class="st0" d="M204.9,256.3c0,19.1,0.2,36.6-0.2,54.1c-0.1,2.5-2.3,6.5-4.4,7.2c-14.6,5.1-29.5,5-44.2,0
			c-2.1-0.7-4.4-4.7-4.5-7.2c-0.4-17.5-0.2-35-0.2-54.1C169.2,256.3,186.5,256.3,204.9,256.3z M195.9,272.4c2.4-3,4.3-5.4,6.2-7.9
			c-0.6-0.7-1.3-1.4-1.9-2.2c-5.9,4.2-11.7,8.3-18.2,12.9c-0.9-3.5-1.7-6.8-3-12c-2.5,5.3-4.1,8.8-5.4,11.6
			c-6.5-4.5-12.1-8.5-17.8-12.4c-0.6,0.7-1.2,1.5-1.8,2.2c2,2.5,4,5,6.3,7.7c-1.9,0.6-3.8,1.2-6.1,2c6.1,7.6,11.7,14.5,17.9,22.1
			c-0.1,0.1-2.2,2.4-2.6,2.9c3.5,6.8,6.2,12,8.7,16.7c2.5-4.9,5.3-10.5,9.3-18.6c-0.3-0.2-3.3-1.5-7.1-3.2c13.6-2,14-14.1,22-19.9
			C199.9,273.5,198.1,273,195.9,272.4z"/>
		<path id="XMLID_7_" class="st0" d="M142.6,288.9c1.3-2.3,2.3-3.9,3.3-5.5c0.4,0.2,0.8,0.4,1.2,0.6c-1,5.6-2.1,11.2-3.1,16.9
			c-0.5,0.3-1,0.6-1.5,0.9c-1.7-5.8-3.4-11.6-5-17.4c0.7-0.3,1.4-0.6,2.1-0.9C140.5,285.2,141.4,286.8,142.6,288.9z"/>
		<path id="XMLID_6_" class="st0" d="M214,289c1.1-2.4,1.8-4,2.5-5.7c0.8,0.2,1.5,0.5,2.3,0.7c-1.6,6-3.1,12.1-4.7,18.1
			c-0.5-0.1-1-0.3-1.6-0.4c-1.1-5.8-2.1-11.6-3.6-19.5C211.1,285.1,212.2,286.5,214,289z"/>
		<path id="XMLID_5_" class="st0" d="M142.1,269.4c-1.6-5.9-3.3-11.8-4.9-17.7c0.6-0.3,1.1-0.6,1.7-0.9c1.1,1.5,2.2,2.9,3.6,4.8
			c1.2-1.7,2.2-3.3,3.3-4.9c0.4,0.2,0.8,0.4,1.3,0.6c-1.1,5.7-2.3,11.4-3.4,17.1C143,268.8,142.6,269.1,142.1,269.4z"/>
		<path id="XMLID_4_" class="st0" d="M214.2,255.8c1.3-2.2,2.2-3.6,3.1-5c0.6,0.2,1.3,0.5,1.9,0.7c-1.7,6-3.3,11.9-5.6,20.3
			c-1.7-8.6-2.9-14.4-4.6-22.7C211.4,252.3,212.5,253.7,214.2,255.8z"/>
		<path id="XMLID_3_" d="M195.9,272.4c2.2,0.6,3.9,1.1,6.4,1.8c-8,5.8-8.4,17.9-22,19.9c3.8,1.7,6.7,3.1,7.1,3.2
			c-4.1,8.1-6.9,13.7-9.3,18.6c-2.5-4.8-5.2-10-8.7-16.7c0.4-0.4,2.5-2.8,2.6-2.9c-6.2-7.6-11.8-14.5-17.9-22.1
			c2.3-0.7,4.2-1.3,6.1-2c-2.2-2.8-4.3-5.3-6.3-7.7c0.6-0.7,1.2-1.5,1.8-2.2c5.7,4,11.4,7.9,17.8,12.4c1.3-2.8,2.9-6.3,5.4-11.6
			c1.3,5.2,2.1,8.5,3,12c6.4-4.5,12.3-8.7,18.2-12.9c0.6,0.7,1.3,1.4,1.9,2.2C200.2,267,198.3,269.4,195.9,272.4z"/>
	</g>
</g>
</svg>
